<?xml version="1.0" encoding="UTF-8"?><svg id="Layer_2" xmlns="http://www.w3.org/2000/svg" viewBox="0 0 180.97 81.08"><defs><style>.cls-1{fill:#fff;}.cls-2{fill:#d0e6f4;}.cls-3{fill:#e8f3fa;}</style></defs><g id="Layer_1-2"><g><path class="cls-3" d="M152.92,32.58c-1.68,0-3.32,.1-4.92,.28-1.64-4.43-8.15-7.73-15.95-7.73-3.28,0-6.34,.59-8.9,1.6,0-.11,.03-.22,.03-.33,0-5.11-7.82-9.25-17.46-9.25-2.06,0-4.02,.2-5.85,.54,.63-1.56,.99-3.29,.99-5.11C100.87,5.64,95.81,.02,89.56,.02c-4.56,0-8.47,2.99-10.26,7.3-2.06-1.16-4.36-1.9-6.82-2.1-9.93-.79-18.69,7.47-19.57,18.46-.22,2.72,.07,5.34,.77,7.77l-.18,.13c-2.42-2-6.14-3.28-10.33-3.28-7.3,0-13.22,3.9-13.22,8.71,0,.68,.13,1.35,.36,1.98C13.97,38.26,.64,43.5,.02,51.14c-.64,8.02,12.96,15.65,30.38,17.05,7.25,.58,14.01-.01,19.49-1.48-2.18,2.75-3.1,5.45-2.38,7.83,2.19,7.26,18.75,8.69,37,3.2,11.34-3.42,20.66-8.7,25.56-13.96,0,.12-.03,.24-.03,.37,0,5.79,7.67,10.48,17.12,10.48,7.97,0,14.65-3.34,16.56-7.85,2.88,.63,5.98,.97,9.2,.97,15.49,0,28.05-7.87,28.05-17.58s-12.56-17.58-28.05-17.58Z"/><path class="cls-1" d="M72.46,11.88c2.46,.2,4.77,.94,6.82,2.1,1.79-4.31,5.71-7.3,10.26-7.3,5.2,0,9.56,3.89,10.89,9.19,.26-1.06,.42-2.17,.42-3.32,0-6.93-5.06-12.55-11.31-12.55-4.56,0-8.47,2.99-10.26,7.3-2.06-1.16-4.36-1.9-6.82-2.1-9.93-.79-18.69,7.47-19.57,18.46-.14,1.74-.05,3.44,.2,5.08,1.56-10.18,9.93-17.62,19.37-16.86Z"/><path class="cls-2" d="M154.32,55.06c-1.91,4.51-8.59,7.85-16.56,7.85-9.46,0-17.12-4.69-17.12-10.48,0-.12,.02-.24,.03-.37-4.91,5.26-14.22,10.54-25.56,13.96-18.25,5.5-34.81,4.06-37-3.2-.71-2.37,.2-5.07,2.38-7.83-5.48,1.47-12.24,2.06-19.49,1.48-16.03-1.28-28.82-7.85-30.26-15.14C4.45,43.51,.35,46.95,.02,51.11c-.64,8.02,12.96,15.65,30.38,17.05,7.25,.58,14.01-.01,19.49-1.48-2.18,2.75-3.1,5.45-2.38,7.83,2.19,7.26,18.75,8.69,37,3.2,11.34-3.42,20.66-8.7,25.56-13.96,0,.12-.03,.24-.03,.37,0,5.79,7.67,10.48,17.12,10.48,7.97,0,14.65-3.34,16.56-7.85,2.88,.63,5.98,.97,9.2,.97,14.3,0,26.1-6.71,27.82-15.38-4.75,2.32-10.73,3.71-17.22,3.71-3.22,0-6.32-.35-9.2-.97Z"/><path class="cls-2" d="M156.17,54c-4.1,1.11-8.32-1.3-9.43-5.4,0-.02,0-.04-.01-.06-.07,.86,0,1.74,.24,2.62,1.11,4.1,5.34,6.51,9.43,5.4s6.49-5.29,5.41-9.37c-.25,3.14-2.42,5.93-5.64,6.81Z"/><path class="cls-2" d="M120.33,31.84c-3,3.76-8.48,4.39-12.25,1.39-.02-.02-.04-.03-.05-.05,.51,.83,1.17,1.6,1.98,2.24,3.76,3,9.25,2.38,12.25-1.39,2.98-3.75,2.38-9.19-1.33-12.2,1.88,3.04,1.76,7.05-.59,10.01Z"/><path class="cls-2" d="M50.96,44.88c-11.17,.4-20.36-3.17-20.53-7.98,0-.02,0-.05,0-.07-.73,.95-1.14,1.95-1.1,2.98,.17,4.81,9.37,8.38,20.53,7.98,11.11-.4,19.98-4.59,19.9-9.37-2.68,3.46-10.04,6.14-18.8,6.46Z"/></g></g></svg>