<?xml version="1.0" encoding="UTF-8"?><svg id="Layer_2" xmlns="http://www.w3.org/2000/svg" viewBox="0 0 200.54 105.03"><defs><style>.cls-1{fill:#fff;}.cls-2{fill:#d0e6f4;}.cls-3{fill:#e8f3fa;}</style></defs><g id="Layer_1-2"><g><path class="cls-3" d="M200.37,40.4c-2.13-13.13-23.28-20.62-47.25-16.73-1.31,.21-2.59,.46-3.86,.73,0-.15,.01-.3,.01-.46,0-9.83-10.27-17.79-22.93-17.79-8.16,0-15.32,3.31-19.39,8.29C101.85,5.9,90.99,0,78.42,0c-17.48,0-31.64,11.4-31.64,25.45,0,2.31,.39,4.54,1.1,6.66-3.13-.45-6.42-.7-9.82-.7C17.04,31.41,0,40.7,0,52.17s17.04,20.75,38.06,20.75c2.05,0,4.07-.09,6.03-.26-9.36,4.92-14.99,11.84-13.91,18.51,1.68,10.34,18.85,16.16,38.35,13,14.05-2.28,25.47-8.6,30.14-15.82,4.41,6.82,12.53,11.4,21.83,11.4,13.99,0,25.34-10.37,25.34-23.16,0-1.51-.16-2.99-.47-4.42,4.89,.2,10.11-.09,15.46-.96,23.97-3.89,41.67-17.68,39.54-30.8Z"/><g><path class="cls-2" d="M200.37,40.4c-.61-3.78-2.81-7.09-6.19-9.79-3.71,10.71-19.16,20.59-38.85,23.78-5.36,.87-10.57,1.17-15.46,.96,.3,1.43,.47,2.91,.47,4.42,0,12.79-11.34,23.16-25.34,23.16-9.29,0-17.42-4.58-21.82-11.4-4.66,7.22-16.09,13.54-30.14,15.82-12.56,2.04-24.15,.34-31.26-3.89-1.41,2.52-2,5.13-1.58,7.7,1.68,10.34,18.85,16.16,38.35,13,14.05-2.28,25.47-8.6,30.14-15.82,4.41,6.82,12.53,11.4,21.82,11.4,13.99,0,25.34-10.37,25.34-23.16,0-1.51-.16-2.99-.47-4.42,4.89,.2,10.11-.09,15.46-.96,23.97-3.89,41.67-17.68,39.54-30.8Z"/><path class="cls-1" d="M78.42,9.05c12.57,0,23.43,5.9,28.54,14.44,4.06-4.98,11.22-8.29,19.39-8.29,8.6,0,17.86,3.55,22.92,8.9,0-.05,0-.11,0-.16,0-9.83-10.27-17.79-22.93-17.79-8.16,0-15.32,3.31-19.39,8.29C101.85,5.9,90.99,0,78.42,0c-17.48,0-31.64,11.4-31.64,25.45,0,1.54,.19,3.04,.51,4.5,2.67-11.89,15.58-20.9,31.13-20.9Z"/></g><path class="cls-2" d="M60.46,38.51c-7.28-.27-12.99-5.5-12.76-11.7,0-.03,0-.06,0-.09-.54,1.17-.88,2.43-.92,3.76-.23,6.19,5.49,11.43,12.76,11.7,7.24,.26,13.29-4.49,13.58-10.64-1.98,4.26-6.95,7.19-12.66,6.98Z"/><path class="cls-2" d="M97.01,70.1c-7.1,1.12-13.63-2.88-14.58-8.93,0-.03,0-.06,0-.09-.31,1.23-.39,2.52-.19,3.82,.95,6.05,7.48,10.05,14.58,8.93,7.07-1.11,12.04-6.86,11.15-12.88-1.12,4.51-5.38,8.28-10.95,9.15Z"/></g></g></svg>