<?xml version="1.0" encoding="UTF-8"?><svg id="Layer_2" xmlns="http://www.w3.org/2000/svg" viewBox="0 0 167.06 65.53"><defs><style>.cls-1{fill:#fff;}.cls-2{fill:#d0e6f4;}.cls-3{fill:#e8f3fa;}</style></defs><g id="Layer_1-2"><g><path class="cls-3" d="M166.61,35.69c-1.98-7.11-10.17-11.5-20.65-12.11-.28-2.73-2.81-4.87-5.9-4.87-1.72,0-3.26,.67-4.34,1.73-.25-6.01-7.25-10.83-15.87-10.83-3.55,0-6.82,.83-9.47,2.21-2.23-6.78-10.54-11.82-20.49-11.82-11.22,0-20.38,6.42-21.03,14.5-1.13-.9-2.62-1.46-4.27-1.46-2.84,0-5.24,1.64-6.05,3.9-4.93-3.27-11.6-5.28-18.94-5.28-15.2,0-27.52,8.59-27.52,19.18,0,1.76,.35,3.47,.99,5.09-7.85,2.26-13.06,6.25-13.06,10.81,0,7.05,12.49,12.76,27.9,12.76,11.12,0,20.71-2.98,25.2-7.28,2.39,4.59,12.95,8.04,25.63,8.04,11.4,0,21.1-2.8,24.67-6.7,3.12,10.36,19.55,14.84,36.89,10,17.48-4.88,29.27-17.37,26.33-27.9Z"/><path class="cls-1" d="M87.75,5.85c9.95,0,18.27,5.04,20.49,11.82,2.65-1.38,5.92-2.21,9.47-2.21,8.62,0,15.62,4.82,15.87,10.83,1.08-1.06,2.62-1.73,4.34-1.73,3.08,0,5.61,2.14,5.9,4.87,10.48,.61,18.67,5,20.65,12.11,.49,1.75,.56,3.56,.28,5.38,2.13-3.71,2.88-7.59,1.86-11.23-1.98-7.11-10.17-11.5-20.65-12.11-.28-2.73-2.81-4.87-5.9-4.87-1.72,0-3.26,.67-4.34,1.73-.25-6.01-7.25-10.83-15.87-10.83-3.55,0-6.82,.83-9.47,2.21-2.23-6.78-10.54-11.82-20.49-11.82-11.2,0-20.33,6.39-21.02,14.45,3.44-5.09,10.59-8.6,18.88-8.6Z"/><path class="cls-2" d="M113.36,41.48c-3.57,3.9-13.26,6.7-24.67,6.7-12.68,0-23.24-3.46-25.63-8.04-4.48,4.3-14.08,7.28-25.2,7.28-13.8,0-25.24-4.58-27.49-10.6-6.32,2.34-10.37,5.91-10.37,9.92,0,7.05,12.49,12.76,27.9,12.76,11.12,0,20.71-2.98,25.2-7.28,2.39,4.59,12.95,8.04,25.63,8.04,11.4,0,21.1-2.8,24.67-6.7,3.12,10.36,19.55,14.84,36.89,10,13.02-3.63,22.87-11.48,25.84-19.61-4.34,3.17-9.76,5.81-15.88,7.52-17.34,4.84-33.77,.36-36.89-10Z"/><path class="cls-2" d="M64.01,33.27c1.03,4.7-1.95,9.35-6.66,10.37-.02,0-.05,0-.07,.01,.97,.13,1.98,.1,2.99-.12,4.7-1.03,7.68-5.67,6.66-10.37-1.02-4.68-5.62-7.65-10.3-6.67,3.54,.46,6.58,3.08,7.39,6.78Z"/><path class="cls-2" d="M115.05,41c-4.8,.3-8.94-3.36-9.23-8.16,0-.02,0-.05,0-.07-.27,.94-.4,1.94-.34,2.97,.3,4.8,4.43,8.46,9.23,8.16s8.42-4.39,8.16-9.16c-1,3.43-4.05,6.03-7.82,6.27Z"/></g></g></svg>