<?xml version="1.0" encoding="UTF-8"?><svg id="Layer_2" xmlns="http://www.w3.org/2000/svg" viewBox="0 0 191.73 81.02"><defs><style>.cls-1{fill:#fff;}.cls-2{fill:#d0e6f4;}.cls-3{fill:#e8f3fa;}</style></defs><g id="Layer_1-2"><g><path class="cls-3" d="M191.68,40.14c-1.16-14.65-22.47-24.92-47.6-22.94-10.47,.83-19.94,3.65-27.35,7.72,.02-.25,.06-.51,.06-.77,0-6.59-8.16-11.92-18.22-11.92-3.89,0-7.48,.8-10.44,2.16,.14-1.66-.04-3.31-.6-4.89-3.03-8.64-15.86-12-28.66-7.5-9.46,3.32-16.24,10.01-17.92,16.76C18.02,19.88,0,31.03,0,44.64,0,58.99,20.05,70.62,44.79,70.62c6.27,0,12.24-.75,17.66-2.1,4.02,7.22,16.89,12.5,32.17,12.5s27.79-5.13,32-12.18c6.54,1.48,13.91,2.04,21.64,1.43,25.13-1.98,44.57-15.47,43.41-30.12Z"/><g><path class="cls-2" d="M134.27,52.09c-4.21,7.05-16.94,12.18-32,12.18s-28.15-5.28-32.17-12.5c-5.42,1.35-11.39,2.1-17.66,2.1-23.59,0-42.91-10.59-44.65-24.02C2.88,34.03,0,39.07,0,44.5c0,14.35,20.05,25.99,44.79,25.99,6.27,0,12.24-.75,17.66-2.1,4.02,7.22,16.89,12.5,32.17,12.5s27.79-5.13,32-12.18c6.54,1.48,13.91,2.04,21.64,1.43,25.13-1.98,44.57-15.47,43.42-30.12,0-.05-.01-.09-.02-.14-7.77,7.19-20.75,12.47-35.75,13.66-7.74,.61-15.11,.06-21.64-1.43Z"/><path class="cls-1" d="M55.06,8.41c12.79-4.49,25.63-1.13,28.66,7.5,.56,1.58,.74,3.23,.6,4.89,2.96-1.36,6.55-2.16,10.44-2.16,10.06,0,18.22,5.34,18.22,11.92,0,.26-.03,.51-.06,.77,7.41-4.07,21.7-8.79,32.16-9.62,8.64-.68,20.96-.1,33.46,1.56-8.75-4.71-21.06-7.14-34.45-6.08-10.47,.83-19.94,3.65-27.35,7.72,.02-.25,.06-.51,.06-.77,0-6.59-8.16-11.92-18.22-11.92-3.89,0-7.48,.8-10.44,2.16,.14-1.66-.04-3.31-.6-4.89-3.03-8.64-15.86-12-28.66-7.5-8.84,3.11-15.34,9.15-17.52,15.44,3.23-3.75,7.97-7,13.7-9.02Z"/></g><path class="cls-2" d="M69.47,49.93c-7.28-.27-12.99-5.5-12.76-11.7,0-.03,0-.06,0-.09-.54,1.17-.88,2.43-.92,3.76-.23,6.19,5.49,11.43,12.76,11.7s13.29-4.49,13.58-10.64c-1.98,4.26-6.95,7.19-12.66,6.98Z"/><path class="cls-2" d="M47.85,39.72c-4.31-1.74-6.61-6.13-5.13-9.8,0-.02,.02-.04,.03-.05-.58,.58-1.05,1.27-1.37,2.06-1.48,3.67,.82,8.06,5.13,9.8,4.29,1.73,8.96,.18,10.47-3.45-2.12,2.13-5.73,2.81-9.12,1.44Z"/><path class="cls-2" d="M136.4,50.39c-9.15,1.9-17.37-.41-18.36-5.16,0-.02,0-.05,0-.07-.44,1.04-.6,2.09-.39,3.11,.98,4.75,9.2,7.06,18.36,5.16,9.11-1.89,15.7-7.23,14.8-11.96-1.61,3.79-7.22,7.44-14.4,8.93Z"/></g></g></svg>