<?xml version="1.0" encoding="UTF-8"?><svg id="Layer_2" xmlns="http://www.w3.org/2000/svg" viewBox="0 0 62.4 63.86"><defs><style>.cls-1{fill:#fff;}.cls-2{fill:#d0e6f4;}.cls-3{fill:#e8f3fa;}</style></defs><g id="Layer_1-2"><g><path class="cls-3" d="M54.92,34.21c4.34-1.74,7.48-6.79,7.48-12.77,0-7.41-4.83-13.41-10.78-13.41-.81,0-1.59,.12-2.34,.33-.49-4.69-4.85-8.35-10.15-8.35-5.64,0-10.2,4.13-10.2,9.23,0,1.29,.29,2.51,.82,3.62-1.09-.29-2.22-.47-3.4-.47-7.44,0-13.47,6.29-13.47,14.04,0,1.72,.31,3.36,.85,4.89C5.88,33.08,.14,38.71,.14,45.4c0,8.1,8.42,14.68,18.8,14.68,3.77,0,7.26-.87,10.21-2.36,.94,3.51,4.71,6.14,9.23,6.14,5.22,0,9.46-3.52,9.46-7.85,0-.39-.04-.76-.11-1.13,.97,.24,1.98,.39,3.03,.39,6.43,0,11.64-4.88,11.64-10.89,0-4.64-3.11-8.59-7.48-10.16Z"/><path class="cls-1" d="M37.61,6.55c5.31,0,9.67,3.67,10.15,8.35,.75-.21,1.54-.33,2.34-.33,5.95,0,10.77,6,10.78,13.4,.87-1.94,1.38-4.16,1.38-6.54,0-7.41-4.82-13.41-10.78-13.41-.81,0-1.59,.12-2.34,.33-.49-4.69-4.85-8.35-10.16-8.35-5.64,0-10.2,4.13-10.2,9.23,0,.57,.07,1.13,.18,1.68,1.8-2.61,5-4.35,8.65-4.35Z"/><path class="cls-2" d="M48.78,43.81c-1.05,0-2.06-.14-3.03-.39,.06,.37,.11,.75,.11,1.13,0,4.34-4.23,7.85-9.46,7.85-4.52,0-8.29-2.63-9.23-6.14-2.94,1.49-6.44,2.36-10.21,2.36-6.93,0-12.96-2.93-16.22-7.28-.48,1.29-.75,2.65-.75,4.06,0,8.1,8.42,14.68,18.8,14.68,3.77,0,7.27-.87,10.21-2.36,.94,3.51,4.71,6.14,9.23,6.14,5.22,0,9.46-3.52,9.46-7.85,0-.39-.04-.76-.11-1.13,.97,.24,1.98,.39,3.03,.39,6.43,0,11.64-4.88,11.64-10.89,0-2.71-1.06-5.18-2.82-7.08-1.8,3.84-5.89,6.52-10.65,6.52Z"/><path class="cls-2" d="M22.21,34.59c-4.8,.3-8.94-3.36-9.23-8.16,0-.02,0-.05,0-.07-.27,.94-.4,1.94-.34,2.97,.3,4.8,4.43,8.46,9.23,8.16s8.42-4.39,8.16-9.16c-1,3.43-4.05,6.03-7.82,6.27Z"/><path class="cls-2" d="M47.12,43.34c-2.36,2.59-6.37,2.78-8.96,.42-.01-.01-.02-.03-.04-.04,.33,.63,.77,1.21,1.33,1.72,2.59,2.36,6.6,2.17,8.96-.42,2.35-2.58,2.17-6.56-.38-8.92,1.22,2.3,.94,5.2-.91,7.24Z"/></g></g></svg>