<?xml version="1.0" encoding="UTF-8"?><svg id="Layer_2" xmlns="http://www.w3.org/2000/svg" viewBox="0 0 289.25 104.74"><defs><style>.cls-1{fill:#fff;}.cls-2{fill:#d0e6f4;}.cls-3{fill:#e8f3fa;}</style></defs><g id="Layer_1-2"><g><path class="cls-3" d="M270.56,45.25c-.72-7.67-11.27-13.76-24.19-13.76-7.66,0-14.48,2.14-18.92,5.49,.13-.7,.2-1.4,.2-2.12,0-9.29-10.75-16.82-24-16.82-5.29,0-10.17,1.2-14.13,3.23-2.78-12.09-16.36-21.27-32.72-21.27-18.36,0-33.25,11.57-33.25,25.83,0,.19,.01,.37,.02,.56-2.87-.24-5.96,0-9.08,.85-7.63,2.07-13.33,7.04-15.17,12.49-10.54-5.7-27.61-8.49-46.5-6.73C22.37,35.84-1.25,49.41,.05,63.32c.54,5.79,5.32,10.72,12.9,14.3-4.33,3.5-6.57,7.21-5.94,10.65,1.64,8.89,21.82,12.61,45.06,8.32,7.54-1.39,14.46-3.46,20.33-5.92-.42,1.2-.55,2.39-.35,3.55,1.49,8.81,20.8,12.88,43.12,9.09,14.76-2.5,27.13-7.81,33.4-13.67,7.52,8.94,31.87,12.93,59.72,8.96,32.51-4.64,57.44-18.35,55.69-30.64,0-.02-.01-.04-.01-.07,2.02,.46,4.2,.73,6.48,.73,10.38,0,18.8-5.24,18.8-11.69s-8.36-11.65-18.69-11.69Z"/><g><path class="cls-2" d="M271.65,45.29c-3.4,2.5-8.43,4.1-14.06,4.1-2.25,0-4.39-.27-6.38-.73,0,.02,.01,.04,.01,.07,1.73,12.29-22.83,26-54.85,30.64-27.42,3.97-51.41-.01-58.81-8.96-6.17,5.86-18.36,11.17-32.89,13.67-21.99,3.79-41-.28-42.47-9.09-.19-1.17-.06-2.36,.35-3.55-5.78,2.46-12.61,4.52-20.03,5.92-11.18,2.1-21.65,2.01-29.63,.34-4.28,3.49-6.5,7.17-5.86,10.6,1.64,8.89,21.82,12.61,45.06,8.32,7.54-1.39,14.46-3.46,20.33-5.92-.42,1.2-.55,2.39-.35,3.55,1.49,8.81,20.8,12.88,43.12,9.09,14.76-2.5,27.13-7.81,33.4-13.67,7.52,8.94,31.87,12.93,59.72,8.96,32.51-4.64,57.44-18.35,55.69-30.64,0-.02-.01-.04-.01-.07,2.02,.46,4.2,.73,6.48,.73,10.38,0,18.8-5.24,18.8-11.69s-7.78-11.27-17.6-11.65Z"/><path class="cls-1" d="M103.77,47.99c1.84-5.45,7.54-10.42,15.17-12.49,3.13-.85,6.22-1.1,9.08-.85,0-.19-.02-.37-.02-.56,0-14.27,14.89-25.83,33.25-25.83,11.15,0,21.01,4.27,27.04,10.82-3.83-10.99-16.74-19.07-32.09-19.07-18.36,0-33.25,11.57-33.25,25.83,0,.19,.01,.37,.02,.56-2.87-.24-5.96,0-9.08,.85-7.63,2.07-13.33,7.04-15.17,12.49-10.54-5.7-27.61-8.49-46.5-6.73-19.48,1.82-36.16,8.03-45.31,15.92,9.38-4.91,22.04-8.55,36.18-9.86,18.89-1.76,50.13,3.24,60.68,8.93Z"/></g><path class="cls-2" d="M214.85,43.39c-7.28-.27-12.99-5.5-12.76-11.7,0-.03,0-.06,0-.09-.54,1.17-.88,2.43-.92,3.76-.23,6.19,5.49,11.43,12.76,11.7s13.29-4.49,13.58-10.64c-1.98,4.26-6.95,7.19-12.66,6.98Z"/><path class="cls-2" d="M140.9,69.83c-7.69,.93-14.56-3.62-15.35-10.17,0-.03,0-.07,0-.1-.38,1.32-.52,2.69-.35,4.1,.79,6.54,7.66,11.1,15.35,10.17,7.65-.92,13.21-6.92,12.49-13.43-1.38,4.8-6.1,8.7-12.14,9.43Z"/><path class="cls-2" d="M16.19,73.36c-7.69,.93-14.56-3.62-15.35-10.17,0-.03,0-.07,0-.1-.38,1.32-.52,2.69-.35,4.1,.79,6.54,7.66,11.1,15.35,10.17,7.65-.92,13.21-6.92,12.49-13.43-1.38,4.8-6.1,8.7-12.14,9.43Z"/></g></g></svg>