<?xml version="1.0" encoding="UTF-8"?><svg id="Layer_2" xmlns="http://www.w3.org/2000/svg" viewBox="0 0 134.8 41.39"><defs><style>.cls-1{fill:#fff;}.cls-2{fill:#d0e6f4;}.cls-3{fill:#e8f3fa;}</style></defs><g id="Layer_1-2"><g><path class="cls-3" d="M108.43,13.3c-6.1,0-11.71,.92-16.18,2.46-1.73-1.49-4.52-2.46-7.67-2.46-1.01,0-1.98,.1-2.89,.28,.67-1.14,1.05-2.37,1.05-3.67,0-5.48-6.6-9.92-14.73-9.92-5.71,0-10.64,2.19-13.09,5.38-3.76-2.08-9.26-2.27-14.59-.08-6.46,2.65-10.67,7.95-10.77,12.91-3.54-1.48-8.14-2.04-13.03-1.33C6.54,18.34-.83,24.54,.07,30.74c.9,6.2,9.74,10.05,19.73,8.59,3.76-.55,7.14-1.77,9.86-3.41,3.12,3.21,10.13,5.46,18.31,5.46,8.65,0,15.99-2.51,18.8-6.03,3.09,1.33,7,2.13,11.28,2.13,5.52,0,10.45-1.33,13.75-3.42,4.54,1.64,10.32,2.62,16.62,2.62,14.56,0,26.37-5.24,26.37-11.69s-11.81-11.69-26.37-11.69Z"/><path class="cls-1" d="M51.85,9.28c2.45-3.19,7.39-5.38,13.09-5.38,8.14,0,14.73,4.44,14.73,9.92,0,1.3-.38,2.53-1.05,3.67,.91-.18,1.88-.28,2.89-.28,3.15,0,5.93,.97,7.67,2.46,8.27-3.69,15.94-5.48,22.7-6.26-1.15-.07-2.32-.11-3.52-.11-6.1,0-11.71,.92-16.18,2.46-1.73-1.49-4.52-2.46-7.67-2.46-1.01,0-1.98,.1-2.89,.28,.67-1.14,1.05-2.37,1.05-3.67,0-5.48-6.6-9.92-14.73-9.92-5.71,0-10.64,2.19-13.09,5.38-3.76-2.08-9.26-2.27-14.59-.08-4.34,1.78-7.65,4.75-9.4,8.02,1.72-1.66,3.89-3.09,6.4-4.12,5.33-2.18,10.83-2,14.59,.08Z"/><path class="cls-2" d="M96.93,27.31c-3.3,2.09-8.23,3.42-13.75,3.42-4.27,0-8.19-.8-11.28-2.13-2.81,3.51-10.15,6.03-18.8,6.03-8.18,0-15.2-2.24-18.31-5.46-2.72,1.64-6.1,2.86-9.86,3.41-9.99,1.46-18.83-2.39-19.73-8.59-.14-.95-.06-1.9,.17-2.84C1.67,23.78-.43,27.26,.07,30.74c.9,6.2,9.74,10.05,19.73,8.59,3.76-.55,7.14-1.77,9.86-3.41,3.12,3.21,10.13,5.46,18.31,5.46,8.65,0,15.99-2.51,18.8-6.03,3.09,1.33,7,2.13,11.28,2.13,5.52,0,10.45-1.33,13.75-3.42,4.54,1.64,10.32,2.62,16.62,2.62,14.44,0,26.16-5.15,26.36-11.53-4.8,2.89-12.52,4.76-21.23,4.76-6.3,0-12.09-.98-16.62-2.62Z"/><path class="cls-2" d="M33.47,28.47c-3.33,.21-6.19-2.33-6.4-5.65,0-.02,0-.03,0-.05-.19,.65-.28,1.34-.23,2.06,.21,3.33,3.07,5.86,6.4,5.65,3.31-.2,5.83-3.04,5.65-6.35-.69,2.38-2.81,4.18-5.42,4.34Z"/><path class="cls-2" d="M72.98,29.28c-4.21-.72-7.04-4.71-6.33-8.92,0-.02,.01-.04,.01-.06-.43,.76-.74,1.59-.89,2.5-.72,4.21,2.12,8.21,6.33,8.92s8.16-2.09,8.91-6.26c-1.56,2.76-4.72,4.39-8.03,3.83Z"/></g></g></svg>