<?xml version="1.0" encoding="UTF-8"?><svg id="Layer_2" xmlns="http://www.w3.org/2000/svg" viewBox="0 0 248.25 91.72"><defs><style>.cls-1{fill:#fff;}.cls-2{fill:#d0e6f4;}.cls-3{fill:#e8f3fa;}</style></defs><g id="Layer_1-2"><g><path class="cls-3" d="M228.73,50.18c.36-.64,.66-1.31,.86-2.02,2.33-8.2-7.39-18.15-21.72-22.23-7.62-2.17-15.01-2.24-20.61-.59-1.68-10.62-16.43-18.92-34.38-18.92-12.25,0-23.01,3.87-29.14,9.7-.96-9.05-9.24-16.12-19.32-16.12-8.44,0-15.61,4.97-18.28,11.91-2.66-1.92-5.83-3.04-9.24-3.04-9.37,0-16.97,8.42-16.97,18.8,0,1.69,.22,3.31,.59,4.86-5.99-1.83-12.99-2.88-20.47-2.88C17.93,29.66,0,38.83,0,50.14s17.93,20.48,40.05,20.48c7.48,0,14.47-1.05,20.46-2.88-2.9,2.95-4.33,6.06-3.88,9.07,1.44,9.43,20.92,14.29,43.51,10.85,14.74-2.25,27.17-7.47,33.62-13.46,4.26,10.03,20.77,17.51,40.5,17.51s34.68-6.79,39.82-16.11c3.62,2.22,8.35,3.57,13.53,3.57,11.4,0,20.64-6.5,20.64-14.52s-8.65-14.08-19.53-14.48Z"/><path class="cls-1" d="M77.01,16.89c3.41,0,6.58,1.12,9.24,3.04,2.67-6.93,9.84-11.91,18.28-11.91,10.08,0,18.35,7.07,19.32,16.12,6.13-5.83,16.89-9.7,29.14-9.7,17.95,0,32.71,8.3,34.38,18.92,5.6-1.65,12.99-1.58,20.61,.59,10.57,3.01,18.63,9.21,21.2,15.55,.21-.44,.39-.88,.52-1.35,2.33-8.2-7.39-18.15-21.72-22.23-7.62-2.17-15.01-2.24-20.61-.59-1.68-10.62-16.43-18.92-34.38-18.92-12.25,0-23.01,3.87-29.14,9.7-.96-9.05-9.24-16.12-19.32-16.12-8.44,0-15.61,4.97-18.28,11.91-2.66-1.92-5.83-3.04-9.24-3.04-9.37,0-16.97,8.42-16.97,18.8,0,1.37,.15,2.69,.41,3.98,1.67-8.44,8.45-14.75,16.56-14.75Z"/><path class="cls-2" d="M143.99,55.04c-6.45,5.98-17.37,10.52-33.77,14.53-22.2,5.42-36.57,4.92-38.01-4.51-.46-3.01,.98-6.12,3.88-9.07-5.99,1.82-12.99,2.88-20.46,2.88-22.12,0-40.05-9.17-40.05-20.48,0-1.68,.4-3.31,1.15-4.88C6.6,37.21,0,43.28,0,50.14c0,11.31,17.93,20.48,40.05,20.48,7.48,0,14.47-1.05,20.46-2.88-2.9,2.95-4.33,6.06-3.88,9.07,1.44,9.43,20.92,14.29,43.51,10.85,14.74-2.25,27.17-7.47,33.62-13.46,4.26,10.03,20.77,17.51,40.5,17.51s34.54-6.73,39.75-15.99c-6.81,2.66-15.16,4.23-24.18,4.23-19.73,0-41.58-14.88-45.84-24.92Z"/><path class="cls-2" d="M77.72,45.73c-9.4-.34-16.79-7.11-16.49-15.11,0-.04,0-.08,.01-.12-.7,1.51-1.13,3.14-1.2,4.86-.29,8,7.09,14.77,16.49,15.11s17.17-5.81,17.54-13.75c-2.56,5.51-8.98,9.28-16.36,9.01Z"/><path class="cls-2" d="M146.37,56.03c-6.61-.24-11.81-5-11.6-10.63,0-.03,0-.06,0-.08-.49,1.06-.8,2.21-.84,3.42-.21,5.63,4.99,10.39,11.6,10.63s12.08-4.08,12.34-9.67c-1.8,3.87-6.31,6.53-11.51,6.34Z"/><path class="cls-2" d="M211.45,73.06c-6.45-.24-11.52-4.88-11.32-10.37,0-.03,0-.05,0-.08-.48,1.03-.78,2.15-.82,3.33-.2,5.49,4.87,10.13,11.32,10.37,6.42,.23,11.78-3.98,12.03-9.43-1.76,3.78-6.16,6.37-11.22,6.18Z"/></g></g></svg>