<?xml version="1.0" encoding="UTF-8"?><svg id="Layer_2" xmlns="http://www.w3.org/2000/svg" viewBox="0 0 146.87 80.03"><defs><style>.cls-1{fill:#fff;}.cls-2{fill:#d0e6f4;}.cls-3{fill:#e8f3fa;}</style></defs><g id="Layer_1-2"><g><path class="cls-3" d="M132.74,58.9c.97-1.37,1.52-2.89,1.52-4.5,0-5.95-7.39-10.78-16.51-10.78-4.55,0-8.67,1.2-11.65,3.14,.2-.77,.3-1.6,.3-2.46,0-3.6-1.87-6.65-4.44-7.67,5.72-3.35,9.6-9.74,9.6-17.07,0-10.81-8.41-19.58-18.77-19.58-8.02,0-14.85,5.26-17.54,12.64-2.26-2.08-5.26-3.36-8.58-3.36-7,0-12.67,5.67-12.67,12.67,0,.33,.02,.66,.05,.99-2.09-1.38-4.58-2.19-7.28-2.19-7.28,0-13.18,5.9-13.18,13.18,0,2.99,1.01,5.74,2.68,7.95-2.6-.37-5.41-.45-8.34-.18-11.84,1.07-20.95,7.36-20.35,14.05,.08,.91,.36,1.78,.77,2.6-.48-.09-.97-.14-1.48-.14C3.08,58.18,0,60.91,0,64.26s3.08,6.08,6.88,6.08c.89,0,1.74-.16,2.53-.43,1.41,4.87,9.88,7.7,19.59,6.38,5.91-.81,10.96-2.99,14.03-5.71-.25,.73-.34,1.47-.24,2.2,.74,5.42,11.22,8.46,23.41,6.79,6.74-.92,12.58-3.09,16.34-5.75,6.62,1.06,14.66,1.68,23.33,1.68,22.65,0,41.01-4.23,41.01-9.46,0-2.85-5.48-5.41-14.13-7.14Z"/><path class="cls-1" d="M75.29,20.35c2.69-7.38,9.56-11.08,17.58-11.08,9.49,0,17.06,11.39,16.44,19.65,1.45-2.78,2.29-5.96,2.29-9.34,0-10.81-8.41-19.58-18.77-19.58-8.02,0-14.85,5.26-17.54,12.64-2.26-2.08-5.26-3.36-8.58-3.36-6.06,0-11.12,4.26-12.36,9.94,2.08-1.74,4.62-2.99,7.33-3.55,4.03-.82,9.65,1.01,13.62,4.68Z"/><path class="cls-2" d="M98.51,60.98c-3.76,2.67-9.6,4.83-16.34,5.75-12.19,1.67-22.67-1.38-23.41-6.79-.1-.73-.01-1.47,.24-2.2-3.07,2.72-8.07,5.49-14.03,5.71-39.1,1.4-21.42-20.92-21.43-21.1-9.62,2.03-16.48,7.56-15.95,13.39,.08,.91,.36,1.78,.77,2.6-.48-.09-.97-.14-1.48-.14-3.8,0-6.88,2.72-6.88,6.08s3.08,6.08,6.88,6.08c.89,0,1.74-.16,2.53-.43,1.41,4.87,9.88,7.7,19.59,6.38,5.91-.81,10.96-2.99,14.03-5.71-.25,.73-.34,1.47-.24,2.2,.74,5.42,11.22,8.46,23.41,6.79,6.74-.92,12.58-3.09,16.34-5.75,6.62,1.06,14.66,1.68,23.33,1.68,22.65,0,41.01-4.23,41.01-9.46,0-1.66-1.86-3.22-5.12-4.57-5.9,.76-12.68,1.19-19.91,1.19-8.67,0-16.7-.62-23.33-1.68Z"/><path class="cls-2" d="M97.97,51.14c-4.81,0-8.72-3.9-8.72-8.72,0-.02,0-.05,0-.07-.33,.92-.52,1.91-.52,2.94,0,4.81,3.9,8.72,8.72,8.72s8.67-3.86,8.71-8.64c-1.21,3.36-4.42,5.77-8.19,5.77Z"/><path class="cls-2" d="M59.06,57.66c-3.24,0-5.86-2.62-5.86-5.86,0-.02,0-.03,0-.05-.22,.62-.35,1.28-.35,1.98,0,3.24,2.62,5.86,5.86,5.86s5.83-2.6,5.86-5.81c-.81,2.26-2.97,3.88-5.51,3.88Z"/><path class="cls-2" d="M47.63,40.52c-5.58,2.49-11.7,.94-13.65-3.46,0-.02-.02-.05-.03-.07,0,1.01,.17,2.01,.59,2.96,1.96,4.4,8.07,5.95,13.65,3.46,5.55-2.47,8.49-8.01,6.59-12.4-.03,3.7-2.77,7.55-7.16,9.51Z"/></g></g></svg>