<?xml version="1.0" encoding="UTF-8"?><svg id="Layer_2" xmlns="http://www.w3.org/2000/svg" viewBox="0 0 109.87 67.7"><defs><style>.cls-1{fill:#fff;}.cls-2{fill:#d0e6f4;}.cls-3{fill:#e8f3fa;}</style></defs><g id="Layer_1-2"><g><path class="cls-3" d="M98.89,20.56c-1.1-7.78-8.22-13.79-16.86-13.79-5.09,0-9.65,2.1-12.77,5.4C66.98,5.13,59.92,0,51.56,0s-15.39,5.11-17.7,12.12c-.94-.2-1.91-.31-2.91-.31-5.66,0-10.56,3.47-13.01,8.55-1.05-.26-2.14-.41-3.27-.41C6.57,19.95,0,27.06,0,35.83s6.57,15.88,14.68,15.88c.86,0,1.7-.1,2.52-.25,2.69,3.64,6.82,5.98,11.47,5.98,2.39,0,4.63-.63,6.63-1.72,.13,.74,.31,1.47,.57,2.18,3.13,8.4,14.47,11.93,25.33,7.88,10.15-3.78,16.28-12.85,14.47-20.88,1.28,.39,2.62,.62,4.02,.62,5.77,0,10.75-3.61,13.14-8.85,1.39,.35,2.9,.56,4.47,.56,6.94,0,12.57-3.75,12.57-8.37,0-4.26-4.79-7.77-10.98-8.29Z"/><path class="cls-1" d="M50.39,3.9c8.36,0,15.42,5.13,17.71,12.16,3.12-3.3,7.68-5.4,12.77-5.4,8.64,0,15.77,6.01,16.86,13.79,6,.51,10.67,3.83,10.95,7.91,.75-1.07,1.17-2.26,1.17-3.51,0-4.26-4.79-7.77-10.98-8.29-1.1-7.78-8.22-13.79-16.86-13.79-5.09,0-9.65,2.1-12.77,5.4C66.96,5.13,59.9,0,51.54,0s-14.96,4.82-17.46,11.51c3.55-4.63,9.82-7.61,16.32-7.61Z"/><path class="cls-2" d="M65.39,57.08c-10.85,4.05-22.19,.52-25.33-7.88-.27-.72-.44-1.45-.57-2.18-1.99,1.09-4.24,1.72-6.63,1.72-4.64,0-8.78-2.34-11.47-5.98-.82,.15-1.66,.25-2.52,.25-8.1,0-14.68-7.11-14.68-15.88,0-.81,.07-1.59,.18-2.37C1.68,27.64,0,31.64,0,36.07c0,8.77,6.57,15.88,14.68,15.88,.86,0,1.7-.1,2.52-.25,2.69,3.64,6.82,5.98,11.47,5.98,2.39,0,4.63-.63,6.63-1.72,.13,.74,.31,1.47,.57,2.18,3.13,8.4,14.47,11.93,25.33,7.88,8.18-3.05,13.74-9.54,14.65-16.15-2.56,3.03-6.14,5.6-10.45,7.2Z"/><path class="cls-2" d="M26.78,28.49c-4.81,0-8.72-3.9-8.72-8.72,0-.02,0-.05,0-.07-.33,.92-.52,1.91-.52,2.94,0,4.81,3.9,8.72,8.72,8.72s8.67-3.86,8.71-8.64c-1.21,3.36-4.42,5.77-8.19,5.77Z"/><path class="cls-2" d="M42.08,47.59c-4.81,0-8.72-3.9-8.72-8.72,0-.02,0-.05,0-.07-.33,.92-.52,1.91-.52,2.94,0,4.81,3.9,8.72,8.72,8.72s8.67-3.86,8.71-8.64c-1.21,3.36-4.42,5.77-8.19,5.77Z"/><path class="cls-2" d="M74.18,40.31c-2.14-4.31-.37-9.54,3.94-11.68,.02-.01,.04-.02,.07-.03-.97,.11-1.94,.38-2.87,.84-4.31,2.14-6.08,7.37-3.94,11.68s7.31,6.06,11.61,3.97c-3.55,.41-7.13-1.39-8.81-4.78Z"/></g></g></svg>