<?xml version="1.0" encoding="UTF-8"?><svg id="Layer_2" xmlns="http://www.w3.org/2000/svg" viewBox="0 0 219.85 94.76"><defs><style>.cls-1{fill:#fff;}.cls-2{fill:#d0e6f4;}.cls-3{fill:#e8f3fa;}</style></defs><g id="Layer_1-2"><g><path class="cls-3" d="M219.61,54.02c-2.52-12.62-23.8-19.01-47.52-14.27-1.53,.3-3.03,.65-4.5,1.03-1.92-5.92-7.47-10.21-14.03-10.21-2.35,0-4.57,.56-6.54,1.54,1.21-2.48,1.88-5.14,1.88-7.91,0-13.37-15.33-24.21-34.24-24.21-14.04,0-26.1,5.98-31.38,14.52-.44-.04-.88-.06-1.33-.06-7.26,0-13.15,5.35-13.15,11.95,0,2.54,.88,4.89,2.36,6.82-2.52-.54-5.26-.83-8.14-.83-10.05,0-18.54,3.6-21.27,8.54-4.11-1.64-8.89-2.58-14-2.58C12.42,38.37,0,46.82,0,57.25c0,9.69,10.72,17.66,24.53,18.75,.7,5.04,7.72,9,16.29,9,1.89,0,3.7-.2,5.38-.56,3.45,9.17,23.55,12.94,46.3,8.4,11.31-2.26,21.22-6.17,28.29-10.73,2.17,3.32,6.95,5.64,12.51,5.64,4.95,0,9.28-1.84,11.7-4.58,8.95,3.99,22.14,5.09,36.2,2.29,23.73-4.74,40.92-18.81,38.4-31.42Z"/><path class="cls-1" d="M142.4,29.86c0,2.77-.67,5.43-1.88,7.91,1.97-.98,4.19-1.54,6.54-1.54,6.56,0,12.12,4.29,14.03,10.21,1.47-.38,2.97-.72,4.5-1.03,18.09-3.61,41.68-1.21,52.98,5.73-4.98-10.67-24.72-15.73-46.56-11.37-1.53,.3-3.03,.65-4.5,1.03-1.92-5.92-7.47-10.21-14.03-10.21-2.35,0-4.57,.56-6.54,1.54,1.21-2.48,1.88-5.14,1.88-7.91,0-13.37-15.33-24.21-34.24-24.21-12.62,0-23.63,4.84-29.57,12.03,6.09-3.96,14.22-6.39,23.15-6.39,18.91,0,34.24,10.84,34.24,24.21Z"/><path class="cls-2" d="M159.39,66.54c-2.42,2.75-6.75,4.58-11.7,4.58-5.56,0-10.34-2.31-12.51-5.64-7.07,4.56-16.98,8.47-28.29,10.73-22.74,4.54-42.85,.77-46.3-8.4-1.69,.35-3.5,.56-5.38,.56-8.57,0-15.59-3.96-16.29-9-13.81-1.09-24.53-9.06-24.53-18.75,0-.01,0-.02,0-.03C5.82,43.81,.01,50.01,.01,57.13c0,9.69,10.72,17.66,24.53,18.75,.7,5.04,7.72,9,16.29,9,1.89,0,3.7-.2,5.38-.56,3.45,9.17,23.55,12.94,46.3,8.4,11.31-2.26,21.22-6.17,28.29-10.73,2.17,3.32,6.95,5.64,12.51,5.64,4.95,0,9.28-1.84,11.7-4.58,8.95,3.99,22.14,5.09,36.2,2.29,20.11-4.01,35.52-14.73,38.22-25.59-6.46,4.01-14.66,7.24-23.85,9.08-14.06,2.81-27.26,1.7-36.2-2.29Z"/><path class="cls-2" d="M64.77,64.68c-7.03,1.91-14.04-1.39-15.67-7.37,0-.03-.01-.06-.02-.09-.17,1.28-.11,2.58,.23,3.86,1.63,5.98,8.64,9.28,15.67,7.37,6.99-1.9,11.35-8.24,9.8-14.2-.63,4.66-4.5,8.93-10.01,10.43Z"/><path class="cls-2" d="M130.68,67.08c-4.82,3.04-10.82,2.17-13.41-1.93-.01-.02-.02-.04-.04-.06,.16,.99,.5,1.95,1.06,2.84,2.59,4.1,8.59,4.96,13.41,1.93,4.79-3.02,6.6-8.76,4.08-12.86,.6,3.63-1.32,7.71-5.1,10.09Z"/><path class="cls-2" d="M76.77,33.14c-4.69-.4-8.22-3.95-7.88-7.95,0-.02,0-.04,0-.06-.39,.74-.64,1.54-.71,2.4-.34,3.99,3.19,7.55,7.88,7.95,4.67,.39,8.72-2.49,9.1-6.46-1.41,2.69-4.71,4.43-8.39,4.12Z"/></g></g></svg>