<?xml version="1.0" encoding="UTF-8"?><svg id="Layer_2" xmlns="http://www.w3.org/2000/svg" viewBox="0 0 206.06 89.12"><defs><style>.cls-1{fill:#fff;}.cls-2{fill:#d0e6f4;}.cls-3{fill:#e8f3fa;}</style></defs><g id="Layer_1-2"><g><path class="cls-3" d="M164.06,54.11c-1.71-4.18-6.76-7.21-12.74-7.21-2.57,0-4.96,.57-6.99,1.54,1.72-3.45,2.54-7.51,2.13-11.76-1.07-11.16-10.12-19.42-20.21-18.45-1.46,.14-2.86,.49-4.19,.98,.53-1.22,.83-2.56,.83-3.98,0-5.49-4.45-9.95-9.95-9.95-2.36,0-4.52,.83-6.23,2.2-3.11-4.51-8.31-7.47-14.21-7.47-9.53,0-17.25,7.73-17.25,17.25,0,.53,.03,1.05,.08,1.57-.14,0-.28-.02-.42-.02-4.88,0-8.83,3.21-8.83,7.17,0,.57,.09,1.13,.25,1.66-2.47-1.64-5.7-2.64-9.25-2.64-7.76,0-14.04,4.75-14.04,10.61,0,.91,.17,1.78,.45,2.62-1.9-.96-4.27-1.53-6.84-1.53-6.25,0-11.32,3.35-11.32,7.49,0,.17,.02,.33,.04,.5-.53-.22-1.1-.34-1.71-.34-2.43,0-4.39,1.97-4.39,4.39,0,.62,.13,1.21,.36,1.74C8.71,50.68,0,54.82,0,59.92s9.17,9.48,20.48,9.48c7.76,0,14.51-2,17.99-4.94,0,.11-.03,.22-.03,.34,0,4.19,5.49,7.59,12.27,7.59,3.04,0,5.82-.69,7.97-1.82-.08,.6-.13,1.21-.13,1.82,0,9.24,9.58,16.74,21.4,16.74s20.92-7.15,21.36-16.08c2.4,4.36,9.5,7.52,17.89,7.52,8.97,0,16.46-3.62,18.31-8.45,7.14,1.23,15.98,1.96,25.56,1.96,23.74,0,42.99-4.47,42.99-9.98s-18.72-9.85-42.01-9.98Z"/><g><path class="cls-2" d="M192.97,56.85c-7.01,2.67-19.68,4.45-34.14,4.45-8.9,0-17.11-.68-23.75-1.82-1.72,4.49-8.68,7.86-17.02,7.86-7.8,0-14.39-2.94-16.63-6.99-.41,8.31-9.13,14.95-19.85,14.95s-19.89-6.96-19.89-15.56c0-.57,.05-1.14,.12-1.7-1.99,1.05-4.58,1.7-7.4,1.7-6.3,0-11.4-3.16-11.4-7.05,0-.11,.02-.21,.03-.31-3.23,2.74-9.5,4.59-16.72,4.59s-14.07-2.04-17.14-5c-5.52,1.69-9.17,4.59-9.17,7.88,0,5.23,9.17,9.48,20.48,9.48,7.76,0,14.51-2,17.99-4.94,0,.11-.03,.22-.03,.34,0,4.19,5.49,7.59,12.27,7.59,3.04,0,5.82-.69,7.97-1.82-.08,.6-.13,1.21-.13,1.82,0,9.24,9.58,16.74,21.4,16.74s20.92-7.15,21.36-16.08c2.4,4.36,9.5,7.52,17.89,7.52,8.97,0,16.46-3.62,18.31-8.45,7.14,1.23,15.98,1.96,25.56,1.96,23.74,0,42.99-4.47,42.99-9.98,0-2.81-5.03-5.35-13.1-7.17Z"/><path class="cls-1" d="M91.81,7.97c6.29,0,11.85,3.16,15.17,7.98,1.82-1.47,4.13-2.35,6.65-2.35,3.58,0,6.73,1.77,8.66,4.48,.3-.94,.46-1.94,.46-2.98,0-5.45-4.42-9.87-9.87-9.87-2.34,0-4.49,.82-6.18,2.18-3.09-4.48-8.25-7.41-14.1-7.41-9.46,0-17.12,7.67-17.12,17.12,0,.23,.02,.45,.03,.68,3.09-5.85,9.22-9.84,16.29-9.84Z"/></g><path class="cls-2" d="M52.82,41.66c-4.97,.31-9.24-3.34-9.54-8.14,0-.02,0-.05,0-.07-.28,.94-.42,1.94-.36,2.97,.3,4.8,4.57,8.45,9.54,8.14s8.72-4.41,8.46-9.18c-1.04,3.43-4.2,6.04-8.11,6.28Z"/><path class="cls-2" d="M106.84,59.7c-6.52,.4-12.11-4.38-12.5-10.68,0-.03,0-.06,0-.09-.37,1.23-.55,2.54-.47,3.89,.39,6.3,5.99,11.08,12.5,10.68s11.43-5.78,11.1-12.04c-1.36,4.5-5.51,7.92-10.63,8.24Z"/></g></g></svg>