<?xml version="1.0" encoding="UTF-8"?><svg id="Layer_2" xmlns="http://www.w3.org/2000/svg" viewBox="0 0 172.74 75"><defs><style>.cls-1{fill:#fff;}.cls-2{fill:#d0e6f4;}.cls-3{fill:#e8f3fa;}</style></defs><g id="Layer_1-2"><g><path class="cls-3" d="M141.55,26.71c-2.69,0-5.29,.22-7.78,.64,.08-.42,.14-.84,.14-1.27,0-5.86-7.85-10.61-17.54-10.61-5.35,0-10.12,1.45-13.34,3.73,.39-1.2,.61-2.44,.61-3.73,0-8.55-9.03-15.48-20.18-15.48s-19.35,6.33-20.1,14.35c-.53-.08-1.07-.13-1.63-.13-4.84,0-8.76,3.25-8.76,7.25,0,.74,.14,1.45,.38,2.12-2.55-.43-5.26-.66-8.06-.66-15.01,0-27.17,6.57-27.17,14.68,0,2.39,1.07,4.65,2.95,6.64C9.04,45.26,0,49.55,0,54.69,0,60.58,11.86,65.35,26.48,65.35c7.5,0,14.28-1.26,19.09-3.28-.18,.54-.29,1.1-.29,1.67,0,5.32,8.13,9.63,18.16,9.63s17.91-4.19,18.14-9.41c1.02,6.18,11.09,11.03,23.37,11.03,11.33,0,20.78-4.13,22.98-9.63,4.12,1.31,8.74,2.04,13.63,2.04,17.22,0,31.18-9.11,31.18-20.35s-13.96-20.35-31.18-20.35Z"/><path class="cls-1" d="M100.63,19.83c0,1.29-.23,2.53-.61,3.73,3.22-2.28,8-3.73,13.34-3.73,9.69,0,17.54,4.75,17.54,10.61,0,.43-.05,.85-.14,1.27,2.49-.42,5.09-.64,7.78-.64,13.88,0,28.82,6.33,34.09,14.67-1.05-10.62-14.57-19.03-31.11-19.03-2.69,0-5.29,.22-7.78,.64,.08-.42,.14-.84,.14-1.27,0-5.86-7.85-10.61-17.54-10.61-5.34,0-10.12,1.45-13.34,3.73,.39-1.2,.61-2.44,.61-3.73,0-8.55-9.03-15.48-20.18-15.48-8.88,0-16.39,4.41-19.08,10.53,3.68-3.75,9.51-6.18,16.1-6.18,11.14,0,20.18,6.93,20.18,15.48Z"/><path class="cls-2" d="M137.1,53.2c-2.2,5.5-11.65,9.63-22.98,9.63-12.28,0-22.34-4.85-23.37-11.03-.22,5.22-8.25,9.41-18.14,9.41s-18.16-4.31-18.16-9.63c0-.57,.11-1.13,.29-1.67-4.82,2.02-11.59,3.28-19.09,3.28-11.48,0-21.26-2.94-24.93-7.06-6.51,1.94-10.73,5.06-10.73,8.57,0,5.89,11.86,10.66,26.48,10.66,7.5,0,14.28-1.26,19.09-3.28-.18,.54-.29,1.1-.29,1.67,0,5.32,8.13,9.63,18.16,9.63s17.91-4.19,18.14-9.41c1.02,6.18,11.09,11.03,23.37,11.03,11.33,0,20.78-4.13,22.98-9.63,4.12,1.31,8.74,2.04,13.63,2.04,15.99,0,29.16-7.85,30.97-17.97-5.62,3.59-13.31,5.8-21.79,5.8-4.89,0-9.51-.74-13.63-2.04Z"/><path class="cls-2" d="M94.3,51.39c-6.81,0-12.34-5.19-12.34-11.6,0-.03,0-.06,0-.1-.47,1.22-.74,2.54-.74,3.92,0,6.4,5.52,11.6,12.34,11.6,6.78,0,12.28-5.14,12.33-11.5-1.71,4.48-6.25,7.68-11.6,7.68Z"/><path class="cls-2" d="M61.3,27.73c-4.37,0-7.91-3.33-7.91-7.44,0-.02,0-.04,0-.06-.3,.79-.47,1.63-.47,2.51,0,4.11,3.54,7.44,7.91,7.44s7.88-3.3,7.91-7.38c-1.1,2.87-4.01,4.93-7.44,4.93Z"/><path class="cls-2" d="M27.1,44.07c-5.05-.49-8.91-3.4-8.61-6.52,0-.02,0-.03,0-.05-.4,.56-.66,1.18-.73,1.85-.3,3.12,3.55,6.03,8.61,6.52s9.34-1.63,9.68-4.72c-1.48,2.05-4.99,3.29-8.96,2.91Z"/></g></g></svg>