<?xml version="1.0" encoding="UTF-8"?><svg id="Layer_2" xmlns="http://www.w3.org/2000/svg" viewBox="0 0 130.87 83.38"><defs><style>.cls-1{fill:#fff;}.cls-2{fill:#d0e6f4;}.cls-3{fill:#e8f3fa;}</style></defs><g id="Layer_1-2"><g><path class="cls-3" d="M130.69,40.4c0-9.29-11.13-16.82-24.85-16.82,0,0,0,0,0,0,4.97-2.5,8-5.82,8-9.46,0-7.8-13.92-14.12-31.1-14.12s-31.1,6.32-31.1,14.12c0,.96,.21,1.9,.62,2.81-3.87-1.2-8.39-1.9-13.22-1.9-14.26,0-25.82,6.02-25.82,13.46,0,3.97,3.31,7.55,8.57,10.01C8.87,41.26,0,46.98,0,53.58,0,62.89,17.59,70.43,39.28,70.43c8.81,0,16.93-1.24,23.49-3.34-1.56,2.06-2.29,4.22-1.97,6.34,1.14,7.53,15.05,11.68,31.07,9.26,16.02-2.42,28.09-10.49,26.95-18.02-.51-3.36-3.55-6.04-8.19-7.77,11.43-1.51,20.06-8.32,20.06-16.5Z"/><path class="cls-1" d="M104.93,17.41c0,3.64-3.03,6.95-8,9.46,0,0,0,0,0,0,13.73,0,24.85,7.53,24.85,16.82,0,5.18-3.46,9.81-8.91,12.9,10.39-2.01,18-8.49,18-16.17,0-9.29-11.13-16.82-24.85-16.82,0,0,0,0,0,0,4.97-2.5,8-5.82,8-9.46C114.02,6.34,100.1,.01,82.93,.01,73.54,.01,65.13,1.91,59.42,4.9c4.31-1.03,9.21-1.61,14.41-1.61,17.17,0,31.1,6.32,31.1,14.12Z"/><path class="cls-2" d="M70.62,62.52c-.32-2.12,.4-4.28,1.97-6.34-6.55,2.1-14.68,3.34-23.49,3.34-21.69,0-39.28-7.54-39.28-16.85,0-.08,0-.16,0-.23C3.71,45.41,0,49.31,0,53.58c0,9.31,17.59,16.85,39.28,16.85,8.81,0,16.93-1.24,23.49-3.34-1.56,2.06-2.29,4.22-1.97,6.34,1.14,7.53,15.05,11.68,31.07,9.26,14.85-2.24,26.29-9.34,26.98-16.36-4.61,2.49-10.55,4.45-17.16,5.45-16.02,2.42-29.93-1.72-31.07-9.26Z"/><path class="cls-2" d="M24.25,35.27c-5.77-.21-10.3-4.36-10.12-9.28,0-.02,0-.05,0-.07-.43,.93-.69,1.92-.73,2.98-.18,4.91,4.35,9.07,10.12,9.28s10.54-3.56,10.77-8.44c-1.57,3.38-5.51,5.7-10.04,5.53Z"/><path class="cls-2" d="M74.99,55.37c-5.77-.21-10.3-4.36-10.12-9.28,0-.02,0-.05,0-.07-.43,.93-.69,1.92-.73,2.98-.18,4.91,4.35,9.07,10.12,9.28s10.54-3.56,10.77-8.44c-1.57,3.38-5.51,5.7-10.04,5.53Z"/><path class="cls-2" d="M62.66,20.42c-5.77-.21-10.3-4.36-10.12-9.28,0-.02,0-.05,0-.07-.43,.93-.69,1.92-.73,2.98-.18,4.91,4.35,9.07,10.12,9.28,5.74,.21,10.54-3.56,10.77-8.44-1.57,3.38-5.51,5.7-10.04,5.53Z"/></g></g></svg>