<?xml version="1.0" encoding="UTF-8"?><svg id="Layer_2" xmlns="http://www.w3.org/2000/svg" viewBox="0 0 304.75 101.08"><defs><style>.cls-1{fill:#fff;}.cls-2{fill:#d0e6f4;}.cls-3{fill:#e8f3fa;}</style></defs><g id="Layer_1-2"><g><path class="cls-3" d="M254.92,33.36c-18.41-1.22-34.87,2.43-44.44,8.92,0-.08,.02-.16,.02-.24,0-8.19-8.38-14.83-18.73-14.83-3.32,0-6.43,.69-9.14,1.89,.32-1.31,.5-2.65,.5-4.03,0-12.49-13.86-22.62-30.96-22.62-10.38,0-19.57,3.74-25.18,9.47-4.05-7.03-12.98-11.92-23.35-11.92-14.18,0-25.68,9.14-25.68,20.41,0,1,.09,1.98,.27,2.94-2.19-.86-4.57-1.34-7.07-1.34-10.51,0-19.03,8.32-19.03,18.57,0,1.28,.13,2.53,.39,3.74-5.19-2.22-11.26-3.51-17.74-3.51C15.57,40.82,0,52.04,0,65.89s15.57,25.07,34.78,25.07c7.45,0,14.35-1.69,20.01-4.57,3.71,4.58,13.54,6.22,24.13,3.6,7.34-1.82,13.4-5.28,16.81-9.15,4.58,9.23,21.77,17.45,42.97,19.68,22.1,2.32,41.29-2.64,46.87-11.37,4.27,3.59,11.35,5.95,19.36,5.95,13.04,0,23.62-6.23,23.62-13.91,0-.66-.08-1.31-.23-1.94,6.92,2.23,14.83,3.76,23.29,4.32,28.42,1.88,52.21-7.82,53.12-21.68,.92-13.86-21.38-26.62-49.8-28.5Z"/><g><path class="cls-2" d="M255.72,61.98c-8.46-.56-16.37-2.09-23.29-4.32,.15,.64,.23,1.28,.23,1.94,0,7.68-10.57,13.91-23.62,13.91-8.01,0-15.09-2.35-19.36-5.95-5.58,8.74-24.77,13.69-46.87,11.37-21.19-2.23-38.38-10.45-42.97-19.68-3.41,3.88-9.47,7.34-16.81,9.15-10.59,2.62-20.42,.98-24.13-3.6-5.66,2.88-12.56,4.57-20.01,4.57-15.5,0-28.62-7.31-33.12-17.41-3.65,3.97-5.79,8.73-5.79,13.85,0,13.85,15.57,25.07,34.78,25.07,7.45,0,14.35-1.69,20.01-4.57,3.71,4.58,13.54,6.22,24.13,3.6,7.34-1.82,13.4-5.28,16.81-9.15,4.58,9.23,21.77,17.45,42.97,19.68,22.1,2.32,41.29-2.64,46.87-11.37,4.27,3.59,11.35,5.95,19.36,5.95,13.04,0,23.62-6.23,23.62-13.91,0-.66-.08-1.31-.23-1.94,6.92,2.23,14.83,3.76,23.29,4.32,28.42,1.88,52.21-7.82,53.12-21.68,.22-3.36-.93-6.65-3.19-9.73-9.31,7.1-26.48,11.19-45.81,9.91Z"/><path class="cls-1" d="M210.75,42.04c0-8.19-8.38-14.83-18.73-14.83-3.32,0-6.43,.69-9.14,1.89,.32-1.31,.5-2.65,.5-4.03,0-12.49-13.86-22.62-30.96-22.62-10.38,0-19.57,3.74-25.18,9.47-4.05-7.03-12.98-11.92-23.35-11.92-13.95,0-25.3,8.84-25.66,19.86,4.4-6.23,12.78-10.44,22.41-10.44,10.37,0,19.3,4.89,23.35,11.92,5.62-5.73,14.8-9.47,25.18-9.47,17.1,0,30.96,10.13,30.96,22.62,0,1.38-.18,2.72-.5,4.03,1.89-2.67,7.21-4.49,10.53-4.43,15.31,.29,20.59,8.03,20.59,7.95Z"/></g><path class="cls-2" d="M66.48,48.39c-7.81-.29-13.95-5.91-13.71-12.56,0-.03,0-.07,0-.1-.58,1.25-.94,2.61-.99,4.04-.24,6.65,5.89,12.28,13.71,12.56,7.77,.28,14.27-4.83,14.58-11.43-2.13,4.58-7.46,7.72-13.59,7.49Z"/><path class="cls-2" d="M102.64,58.76c-4.14,0-7.49-2.85-7.49-6.37,0-.02,0-.03,0-.05-.28,.67-.45,1.4-.45,2.15,0,3.52,3.35,6.37,7.49,6.37,4.11,0,7.45-2.83,7.48-6.32-1.04,2.46-3.79,4.22-7.04,4.22Z"/><path class="cls-2" d="M179.51,72.19c-8.75,2.3-17.44-1.87-19.4-9.33,0-.04-.01-.08-.02-.11-.23,1.58-.17,3.2,.25,4.81,1.96,7.45,10.65,11.63,19.4,9.33,8.71-2.29,14.2-10.13,12.33-17.55-.83,5.79-5.68,11.05-12.56,12.86Z"/></g></g></svg>