<?xml version="1.0" encoding="UTF-8"?><svg id="Layer_2" xmlns="http://www.w3.org/2000/svg" viewBox="0 0 151.69 54.41"><defs><style>.cls-1{fill:#fff;}.cls-2{fill:#d0e6f4;}.cls-3{fill:#e8f3fa;}</style></defs><g id="Layer_1-2"><g><path class="cls-3" d="M126.71,7.87c-7.37-1.15-14.31-.54-19.64,1.39-2.03-5.29-10.54-9.26-20.74-9.26-7.11,0-13.39,1.94-17.24,4.9-1.94-1.79-4.69-2.91-7.75-2.91-5.89,0-10.66,4.14-10.66,9.25,0,1.08,.22,2.11,.62,3.08-2.82-1.88-6.97-3.08-11.62-3.08-8.49,0-15.36,3.97-15.36,8.86,0,.14,.02,.27,.04,.41C10.61,21.24,0,26.05,0,31.87c0,6.33,12.52,11.46,27.97,11.46,5.48,0,10.58-.65,14.9-1.76-.96,1.53-1.4,3.14-1.16,4.74,.87,5.84,10.2,9.29,20.84,7.71,8.86-1.32,15.82-5.71,17.4-10.52,2.84,5.36,10.98,9.23,20.59,9.23,11.97,0,21.67-6.01,21.67-13.41,0-.12,0-.25-.02-.37,14.93,2.23,28.05-2.79,29.38-11.29,1.34-8.57-9.79-17.43-24.87-19.79Z"/><g><path class="cls-2" d="M145.7,15.77c.05,.68,.03,1.36-.08,2.04-1.33,8.5-14.45,13.52-29.38,11.29,0,.12,.02,.25,.02,.37,0,7.41-9.7,13.41-21.67,13.41-9.61,0-17.75-3.87-20.59-9.23-1.59,4.81-8.54,9.2-17.4,10.52-5.49,.82-10.62,.29-14.43-1.21-.45,1.11-.62,2.24-.46,3.36,.87,5.84,10.2,9.29,20.84,7.71,8.86-1.32,15.82-5.71,17.4-10.52,2.84,5.36,10.98,9.23,20.59,9.23,11.97,0,21.67-6.01,21.67-13.41,0-.12,0-.25-.02-.37,14.93,2.23,28.05-2.79,29.38-11.29,.65-4.16-1.64-8.38-5.88-11.9Z"/><path class="cls-1" d="M40.25,13.91c4.65,0,11.13,2.71,13.95,4.59-.39-.96-.62-2-.62-3.08,0-5.11,4.77-9.25,10.66-9.25,3.06,0,5.81,1.12,7.75,2.91,3.85-2.96,10.13-4.9,17.24-4.9,10.2,0,16.37,3.36,17.84,5.13h0C105.04,4.03,96.52,.06,86.33,.06c-7.11,0-13.39,1.94-17.24,4.9-1.94-1.79-4.69-2.91-7.75-2.91-5.89,0-10.66,4.14-10.66,9.25,0,1.08,.22,2.11,.62,3.08-2.82-1.88-6.97-3.08-11.62-3.08-8.27,0-15,3.77-15.33,8.5,2.93-3.34,9.56-5.88,15.91-5.88Z"/></g><path class="cls-2" d="M99.1,31.75c-5.51,.45-10.28-2.98-10.67-7.67,0-.02,0-.05,0-.07-.3,.93-.44,1.91-.36,2.92,.39,4.69,5.16,8.12,10.67,7.67,5.48-.45,9.61-4.58,9.27-9.24-1.11,3.39-4.59,6.04-8.91,6.4Z"/><path class="cls-2" d="M41.41,39.6c-9.5,2.29-18.19,.05-19.41-5.01,0-.03,0-.05-.01-.08-.42,1.12-.54,2.25-.28,3.34,1.22,5.05,9.91,7.3,19.41,5.01,9.46-2.28,16.15-8.18,15.01-13.22-1.54,4.11-7.26,8.16-14.72,9.96Z"/></g></g></svg>