<?xml version="1.0" encoding="UTF-8"?><svg id="Layer_2" xmlns="http://www.w3.org/2000/svg" viewBox="0 0 188.64 92.44"><defs><style>.cls-1{fill:#fff;}.cls-2{fill:#d0e6f4;}.cls-3{fill:#e8f3fa;}</style></defs><g id="Layer_1-2"><g><path class="cls-3" d="M134.83,31.24c-1.59-.21-3.17-.37-4.74-.51,.1-.86,.16-1.72,.16-2.6,0-15.53-16.08-28.13-35.92-28.13S58.39,12.59,58.39,28.13c0,.02,0,.03,0,.05-5.24-2.88-12.16-4.63-19.76-4.63-16.32,0-29.54,8.08-29.54,18.04,0,3.95,2.08,7.59,5.6,10.56C5.92,54.36,0,58.52,0,63.29,0,70.38,13.07,76.13,29.2,76.13c4.83,0,9.39-.52,13.4-1.43-.06,.42-.1,.85-.1,1.28,0,9.03,13.96,16.36,31.18,16.36,14.76,0,27.12-5.38,30.35-12.61,7.12,2.56,15.17,4.53,23.79,5.64,31.59,4.09,58.77-4.72,60.71-19.66,1.93-14.95-22.11-30.37-53.71-34.46Z"/><g><path class="cls-2" d="M127.83,68.63c-8.62-1.11-16.67-3.08-23.79-5.64-3.23,7.23-15.59,12.61-30.35,12.61-17.22,0-31.18-7.32-31.18-16.36,0-.43,.04-.86,.1-1.28-4.02,.91-8.57,1.43-13.4,1.43-8.79,0-16.67-1.71-22.02-4.42-4.46,2.25-7.17,5.2-7.17,8.42,0,7.09,13.07,12.84,29.2,12.84,4.83,0,9.39-.52,13.4-1.43-.06,.42-.1,.85-.1,1.28,0,9.03,13.96,16.36,31.18,16.36,14.76,0,27.12-5.38,30.35-12.61,7.12,2.56,15.17,4.53,23.79,5.64,31.59,4.09,58.77-4.72,60.71-19.66,.45-3.48-.52-6.98-2.65-10.36-7.83,10.88-31.37,16.62-58.06,13.17Z"/><path class="cls-1" d="M41.09,30.53c7.53,0,14.4,1.73,19.62,4.56,.05-.1,.1-.2,.15-.3,.22-15.39,16.21-27.81,35.91-27.81,14.92,0,27.71,7.12,33.14,17.26C127.49,10.55,112.5,.01,94.34,.01,74.5,.01,58.42,12.6,58.42,28.14c0,.02,0,.03,0,.05-5.24-2.88-12.16-4.63-19.76-4.63-16.32,0-29.54,8.08-29.54,18.04,0,2.54,.88,4.96,2.44,7.15,0-.06,0-.12,0-.17,0-9.96,13.23-18.04,29.54-18.04Z"/></g><path class="cls-2" d="M93.81,68.68c-5.87-.21-10.48-4.44-10.3-9.43,0-.03,0-.05,0-.07-.44,.94-.71,1.96-.75,3.03-.18,5,4.43,9.22,10.3,9.43,5.84,.21,10.72-3.62,10.95-8.58-1.6,3.44-5.6,5.8-10.21,5.63Z"/><path class="cls-2" d="M117.64,36.17c-7.28-.27-12.99-5.5-12.76-11.7,0-.03,0-.06,0-.09-.54,1.17-.88,2.43-.92,3.76-.23,6.19,5.49,11.43,12.76,11.7s13.29-4.49,13.58-10.64c-1.98,4.26-6.95,7.19-12.66,6.98Z"/><path class="cls-2" d="M46.54,57.26c-5.26-.19-9.39-3.98-9.23-8.46,0-.02,0-.04,0-.07-.39,.84-.63,1.76-.67,2.72-.16,4.48,3.97,8.27,9.23,8.46,5.23,.19,9.61-3.25,9.82-7.7-1.44,3.08-5.02,5.2-9.15,5.04Z"/></g></g></svg>