<?xml version="1.0" encoding="UTF-8"?><svg id="Layer_2" xmlns="http://www.w3.org/2000/svg" viewBox="0 0 166.7 66.39"><defs><style>.cls-1{fill:#fff;}.cls-2{fill:#d0e6f4;}.cls-3{fill:#e8f3fa;}</style></defs><g id="Layer_1-2"><g><path class="cls-3" d="M142.82,17.46c-6.88,0-13.07,2.57-17.43,6.68-1.33-.8-3.01-1.28-4.83-1.28-1.56,0-3.02,.35-4.24,.96,.04-.31,.06-.63,.06-.96,0-5.52-5.35-9.99-11.94-9.99-2.03,0-3.95,.43-5.62,1.18C98.56,6.27,91.13,.03,81.97,.03c-7.92,0-14.54,4.68-16.35,10.97-.9-.17-1.83-.27-2.8-.27-6.33,0-11.48,3.85-11.75,8.67-1.82-1.23-4.01-1.95-6.37-1.95-6.29,0-11.39,5.1-11.39,11.39,0,.74,.08,1.46,.21,2.16-2.77-.65-5.77-1.01-8.92-1.01C11.02,29.99,0,36.63,0,44.82s11.02,14.83,24.61,14.83c10.3,0,19.12-3.82,22.79-9.23,3.96,6.54,14.44,12.52,27.46,14.92,12.31,2.27,23.64,.74,29.94-3.41,3.03,2.25,7.55,3.68,12.6,3.68,7.64,0,14.04-3.27,15.93-7.7,2.91,1.11,6.12,1.73,9.49,1.73,13.19,0,23.89-9.44,23.89-21.1s-10.69-21.1-23.89-21.1Z"/><path class="cls-2" d="M146.94,47.26c-3.37,0-6.58-.62-9.49-1.73-1.89,4.43-8.3,7.7-15.93,7.7-5.05,0-9.57-1.43-12.6-3.68-6.3,4.15-17.63,5.68-29.94,3.41-13.02-2.4-23.49-8.38-27.46-14.92-3.67,5.41-12.49,9.23-22.79,9.23-11.56,0-21.26-4.8-23.9-11.28-3.04,2.47-4.84,5.52-4.84,8.83,0,8.19,11.02,14.83,24.61,14.83,10.3,0,19.12-3.82,22.79-9.23,3.96,6.54,14.44,12.52,27.46,14.92,12.31,2.27,23.64,.74,29.94-3.41,3.03,2.25,7.55,3.68,12.6,3.68,7.64,0,14.04-3.27,15.93-7.7,2.91,1.11,6.11,1.73,9.49,1.73,13.19,0,23.89-9.44,23.89-21.1,0-.17-.01-.34-.01-.51-4.3,5.57-11.54,9.22-19.74,9.22Z"/><path class="cls-2" d="M136.6,43.74c-2.18-3.64-1-8.36,2.64-10.55,.02-.01,.04-.02,.06-.03-.85,.17-1.68,.47-2.46,.94-3.64,2.18-4.82,6.9-2.64,10.55,2.17,3.62,6.86,4.81,10.49,2.67-3.09,.61-6.37-.72-8.08-3.58Z"/><path class="cls-2" d="M108.52,47.37c-6.81,0-12.34-5.19-12.34-11.6,0-.03,0-.06,0-.1-.47,1.22-.74,2.54-.74,3.92,0,6.4,5.52,11.6,12.34,11.6s12.28-5.14,12.33-11.5c-1.71,4.48-6.25,7.68-11.6,7.68Z"/><path class="cls-1" d="M94.2,18.6c1.68-.75,3.59-1.18,5.62-1.18,6.6,0,11.94,4.47,11.94,9.99,0,.32-.02,.64-.06,.96,1.22-.6,2.68-.96,4.24-.96,.26,0,.52,0,.77,.03,3.03,.23,6.02-.67,8.23-2.75,.87-.82,1.79-1.66,2.74-2.5-.82,.59-1.6,1.23-2.32,1.91-1.33-.8-3.01-1.28-4.83-1.28-1.56,0-3.02,.35-4.24,.96,.04-.31,.06-.63,.06-.96,0-5.52-5.35-9.99-11.94-9.99-2.03,0-3.95,.43-5.62,1.18-.24-7.78-7.68-14.02-16.83-14.02-6.4,0-11.96,3.06-14.8,7.55,2.83-1.86,6.37-2.97,10.22-2.97,9.15,0,16.59,6.24,16.83,14.02Z"/><path class="cls-2" d="M48.7,36.26c-7.03,1.91-14.04-1.39-15.67-7.37,0-.03-.01-.06-.02-.09-.17,1.28-.11,2.58,.23,3.86,1.63,5.98,8.64,9.28,15.67,7.37,6.99-1.9,11.35-8.24,9.8-14.2-.63,4.66-4.5,8.93-10.01,10.43Z"/></g></g></svg>