<?xml version="1.0" encoding="UTF-8"?><svg id="Layer_2" xmlns="http://www.w3.org/2000/svg" viewBox="0 0 127.95 51.18"><defs><style>.cls-1{fill:#fff;}.cls-2{fill:#d0e6f4;}.cls-3{fill:#e8f3fa;}</style></defs><g id="Layer_1-2"><g><path class="cls-3" d="M100.59,11.39c-1.62,0-3.21,.09-4.76,.25,0-.08,.02-.17,.02-.25,0-5.23-6.67-9.48-14.9-9.48-3.85,0-7.34,.94-9.99,2.46C68.67,1.78,64.9,.08,60.61,.08c-6.97,0-12.61,4.48-12.61,10.01,0,.89,.16,1.75,.44,2.57-1.72-.25-3.59-.39-5.56-.39-8.32,0-15.06,2.43-15.06,5.43,0,.86,.58,1.68,1.58,2.41C13.12,20.19,0,25.43,0,31.87s13.35,11.77,29.81,11.77c8.53,0,16.21-1.42,21.65-3.68-.06,.33-.09,.67-.09,1.01,0,5.53,8.28,10.01,18.5,10.01,9.28,0,16.94-3.7,18.27-8.53,3.74,1.15,7.97,1.8,12.45,1.8,15.11,0,27.36-7.36,27.36-16.43s-12.25-16.43-27.36-16.43Z"/><g><path class="cls-2" d="M103.57,34.14c-4.49,0-8.72-.65-12.45-1.8-1.33,4.82-8.99,8.53-18.27,8.53-10.22,0-18.5-4.48-18.5-10.01,0-.34,.03-.68,.09-1.01-5.43,2.27-13.12,3.68-21.65,3.68-12.94,0-23.95-3.26-28.07-7.8C1.74,27.55,0,29.73,0,32.07,0,38.58,13.35,43.85,29.81,43.85c8.53,0,16.21-1.42,21.65-3.68-.06,.33-.09,.67-.09,1.01,0,5.53,8.28,10.01,18.5,10.01,9.28,0,16.94-3.7,18.27-8.53,3.74,1.15,7.97,1.8,12.45,1.8,15.11,0,27.36-7.36,27.36-16.43,0-.85-.11-1.68-.31-2.49-4.63,5.13-13.67,8.61-24.07,8.61Z"/><path class="cls-1" d="M60.57,4.13c4.28,0,8.06,1.7,10.34,4.29,2.64-1.52,6.14-2.46,9.99-2.46,8.23,0,14.9,4.24,14.9,9.48,0,.09-.02,.17-.02,.25,1.55-.16,6.73-.93,8.35-.93,5.52,0,11.1,.47,15.98,1.51-4.97-3.06-11.9-4.96-19.58-4.96-1.62,0-3.21,.09-4.76,.25,0-.08,.02-.17,.02-.25,0-5.23-6.67-9.48-14.9-9.48-3.85,0-7.34,.94-9.99,2.46-2.28-2.59-6.06-4.29-10.34-4.29-6.97,0-12.61,4.48-12.61,10.01,0,.7,.1,1.38,.28,2.04,1.21-4.53,6.27-7.93,12.33-7.93Z"/></g><path class="cls-2" d="M91.66,30.82c-3.45,.83-6.83-.88-7.54-3.82,0-.01,0-.03,0-.04-.1,.62-.09,1.26,.06,1.89,.71,2.94,4.08,4.65,7.54,3.82s5.65-3.86,4.98-6.79c-.37,2.26-2.32,4.29-5.03,4.94Z"/><path class="cls-2" d="M59.53,35.1c-3.33-1.24-5.17-4.54-4.12-7.38,0-.01,.01-.03,.02-.04-.43,.46-.78,.99-1.01,1.6-1.06,2.83,.79,6.14,4.12,7.38,3.31,1.23,6.85-.04,7.92-2.85-1.57,1.67-4.32,2.26-6.93,1.29Z"/><path class="cls-2" d="M39.98,19.53c-6.07,1.46-11.49,.54-12.12-2.07,0-.01,0-.03,0-.04-.3,.6-.41,1.19-.27,1.75,.63,2.6,6.05,3.53,12.12,2.07,6.04-1.45,10.43-4.72,9.86-7.32-1.08,2.19-4.81,4.46-9.58,5.61Z"/></g></g></svg>