<?xml version="1.0" encoding="UTF-8"?><svg id="Layer_2" xmlns="http://www.w3.org/2000/svg" viewBox="0 0 109.79 44.15"><defs><style>.cls-1{fill:#fff;}.cls-2{fill:#d0e6f4;}.cls-3{fill:#e8f3fa;}</style></defs><g id="Layer_1-2"><g><path class="cls-3" d="M104.65,17.79c2.56-1.88,4.11-4.3,4.11-6.94C108.76,4.86,100.85,.01,91.08,.01c-6.06,0-11.41,1.87-14.59,4.72-2.58-3.79-8.39-5.66-14.45-4.28-7.29,1.66-12.2,7.4-11.1,12.89-3.9-1.77-9.8-2.9-16.41-2.9-11.75,0-21.27,3.57-21.27,7.97,0,.62,.21,1.22,.57,1.8-7.56,.26-13.52,3.23-13.52,6.85s6.54,6.88,14.62,6.88c2.96,0,5.71-.42,8.01-1.13,.8,6.32,13.26,11.33,28.5,11.33,13.13,0,24.17-3.72,27.51-8.78,3.23,2.71,7.96,4.43,13.25,4.43,9.72,0,17.6-5.77,17.6-12.9,0-3.56-1.97-6.78-5.14-9.11Z"/><g><path class="cls-2" d="M93.93,29.71c-5.29,0-10.02-1.72-13.25-4.43-3.34,5.06-14.38,8.78-27.51,8.78-15.25,0-27.7-5.02-28.5-11.33-2.3,.71-5.05,1.13-8.01,1.13-4.3,0-8.16-.88-10.84-2.27-3.53,1.25-5.82,3.24-5.82,5.48,0,3.8,6.54,6.88,14.62,6.88,2.96,0,5.71-.42,8.01-1.13,.8,6.32,13.26,11.33,28.5,11.33,13.13,0,24.17-3.72,27.51-8.78,3.23,2.71,7.96,4.43,13.25,4.43,9.72,0,17.6-5.77,17.6-12.9,0-1.15-.22-2.25-.61-3.31-3.1,3.67-8.63,6.12-14.95,6.12Z"/><path class="cls-1" d="M60.33,5.96c6.07-1.38,11.87,.49,14.45,4.28,3.19-2.85,8.53-4.72,14.59-4.72,9.27,0,16.86,4.37,17.61,9.94,1.08-1.4,1.69-2.96,1.69-4.6C108.67,4.86,100.76,.01,90.99,.01c-6.06,0-11.41,1.87-14.59,4.72-2.58-3.79-8.39-5.66-14.45-4.28-6.79,1.55-11.51,6.64-11.23,11.76,1.91-2.9,5.35-5.28,9.62-6.26Z"/></g><path class="cls-2" d="M80.92,24.25c-4.8,.3-8.94-3.36-9.23-8.16,0-.02,0-.05,0-.07-.27,.94-.4,1.94-.34,2.97,.3,4.8,4.43,8.46,9.23,8.16s8.42-4.39,8.16-9.16c-1,3.43-4.05,6.03-7.82,6.27Z"/><path class="cls-2" d="M20.28,22.97c-3.57,.22-6.64-2.34-6.85-5.71,0-.02,0-.03,0-.05-.21,.66-.3,1.36-.26,2.09,.21,3.37,3.27,5.93,6.85,5.71s6.27-3.11,6.1-6.46c-.75,2.41-3.03,4.25-5.84,4.42Z"/></g></g></svg>