<?xml version="1.0" encoding="UTF-8"?><svg id="Layer_2" xmlns="http://www.w3.org/2000/svg" viewBox="0 0 102.64 47.61"><defs><style>.cls-1{fill:#fff;}.cls-2{fill:#d0e6f4;}.cls-3{fill:#e8f3fa;}</style></defs><g id="Layer_1-2"><g><path class="cls-3" d="M89.22,21.33c-.93-.34-1.85-.62-2.77-.86,1.68-1.87,2.66-4.13,2.66-6.56,0-6.42-6.81-11.62-15.21-11.62-2.81,0-5.42,.59-7.68,1.6-.88-2.26-3.35-3.89-6.27-3.89s-5.2,1.51-6.16,3.63c-2.48-1.48-6.01-2.41-9.93-2.41-7.02,0-12.79,2.96-13.52,6.75-2.55-.61-5.34-.94-8.26-.94C9.89,7.03,0,12.85,0,20.03c0,3.84,2.84,7.3,7.35,9.67-2.51,1.13-3.98,2.51-3.98,4.01,0,3.84,9.75,6.96,21.78,6.96,5.3,0,10.16-.61,13.94-1.61-.49,.95-.68,1.91-.51,2.83,.87,4.81,10.91,7.03,22.42,4.94,8.78-1.59,15.87-5.23,18.35-9,1.05,.53,2.16,1.01,3.33,1.44,9.04,3.3,17.83,1.96,19.63-2.99,1.81-4.95-4.05-11.64-13.09-14.94Z"/><path class="cls-1" d="M89.22,21.33c-.93-.34-1.85-.62-2.77-.86,1.68-1.87,2.66-4.13,2.66-6.56,0-6.42-6.81-11.62-15.21-11.62-2.81,0-5.42,.59-7.68,1.6-.88-2.26-3.35-3.89-6.27-3.89-2.66,0-4.93,1.36-5.98,3.31,.55-.13,1.13-.21,1.74-.21,2.92,0,5.39,1.63,6.27,3.89,2.26-1.01,4.88-1.6,7.68-1.6,8.4,0,15.21,5.2,15.21,11.62,0,2.44-.99,4.7-2.66,6.56,.92,.24,1.84,.52,2.77,.86,9.04,3.3,14.9,9.99,13.09,14.94-.12,.32-.27,.62-.44,.91,2.31-.78,4-2.14,4.68-4.01,1.81-4.95-4.05-11.64-13.09-14.94Z"/><path class="cls-2" d="M47.29,35.77c-.17-.93,.02-1.88,.51-2.83-3.78,1.01-8.64,1.61-13.94,1.61-12.03,0-21.78-3.11-21.78-6.96,0-1.49,1.48-2.87,3.98-4.01-4.51-2.38-7.35-5.83-7.35-9.67,0-1.73,.58-3.38,1.62-4.88C4.13,11.33,0,15.39,0,20.03c0,3.84,2.84,7.3,7.35,9.67-2.51,1.13-3.98,2.51-3.98,4.01,0,3.84,9.75,6.96,21.78,6.96,5.3,0,10.16-.61,13.94-1.61-.49,.95-.68,1.91-.51,2.83,.87,4.81,10.91,7.03,22.42,4.94,8.71-1.58,15.74-5.17,18.28-8.9-2.79,1.18-6.04,2.15-9.57,2.79-11.51,2.09-21.55-.13-22.42-4.94Z"/><path class="cls-2" d="M39.8,12.92c-4.1,1.11-8.32-1.3-9.43-5.4,0-.02,0-.04-.01-.06-.07,.86,0,1.74,.24,2.62,1.11,4.1,5.34,6.51,9.43,5.4s6.49-5.29,5.41-9.37c-.25,3.14-2.42,5.93-5.64,6.81Z"/><path class="cls-2" d="M54.24,31.02c-6.06,1.65-11.72,.25-12.64-3.11,0-.02,0-.03,0-.05-.24,.76-.29,1.51-.1,2.24,.92,3.37,6.57,4.76,12.64,3.11,6.03-1.64,10.19-5.67,9.33-9.03-.88,2.77-4.47,5.55-9.23,6.85Z"/></g></g></svg>