<?xml version="1.0" encoding="UTF-8"?><svg id="Layer_2" xmlns="http://www.w3.org/2000/svg" viewBox="0 0 167.95 125.42"><defs><style>.cls-1{fill:#fff;}.cls-2{fill:#d0e6f4;}.cls-3{fill:#e8f3fa;}</style></defs><g id="Layer_1-2"><g><path class="cls-3" d="M148.88,26.11c-7.22-1.66-14.13-.88-18.96,1.66,.45-.96,.69-1.98,.69-3.04,0-5.59-6.71-10.12-14.98-10.12-2.3,0-4.47,.36-6.42,.99,0-.01,0-.03,0-.04,0-8.59-8.49-15.55-18.97-15.55s-18.95,6.95-18.96,15.52c-1.8-.58-3.81-.92-5.94-.92-7.51,0-13.61,4.05-13.61,9.05,0,.71,.14,1.4,.37,2.07-3.65-1.53-8.83-2.49-14.58-2.49-10.29,0-18.77,3.06-19.89,6.99C7.53,31.19,.03,34.74,.03,38.98c0,4.98,10.34,9.02,23.1,9.02,6.65,0,12.64-1.1,16.86-2.86-.32,.87-.49,1.78-.49,2.7,0,7.18,9.99,12.99,22.32,12.99,9.15,0,17.02-3.21,20.46-7.8,3.21,5.59,12.55,9.63,23.57,9.63,13.2,0,23.98-5.8,24.72-13.11,3.16,2.33,7.18,4.19,11.72,5.23,12.22,2.81,23.6-1.34,25.42-9.26,1.82-7.92-6.61-16.62-18.83-19.43Z"/><g><path class="cls-2" d="M163.32,33.68c-.04,.44-.1,.88-.2,1.32-1.82,7.92-13.2,12.07-25.42,9.26-4.54-1.04-8.56-2.9-11.72-5.23-.74,7.31-11.52,13.11-24.72,13.11-11.02,0-20.35-4.04-23.57-9.63-3.44,4.59-11.31,7.8-20.46,7.8-7.01,0-13.26-1.88-17.35-4.82-.25,.77-.38,1.56-.38,2.38,0,7.18,9.99,12.99,22.32,12.99,9.15,0,17.02-3.21,20.46-7.8,3.21,5.59,12.55,9.63,23.57,9.63,13.2,0,23.98-5.8,24.72-13.11,3.16,2.33,7.18,4.19,11.72,5.23,12.22,2.81,23.6-1.34,25.42-9.26,.93-4.05-.82-8.3-4.38-11.86Z"/><path class="cls-3" d="M39.62,125.23c.09,.06,.17,.13,.26,.19,.03-.11,.06-.22,.1-.33-.11,.05-.24,.09-.36,.14Z"/><path class="cls-1" d="M19.84,34.98c1.12-3.93,9.59-6.99,19.89-6.99,5.76,0,10.93,.96,14.58,2.49-.23-.66-.37-1.35-.37-2.07,0-5,6.09-9.05,13.61-9.05,2.13,0,4.14,.34,5.94,.92,.02-8.58,8.5-15.52,18.96-15.52,6.97,0,13.04,3.09,16.34,7.68-1.76-7.1-9.41-12.44-18.59-12.44-10.46,0-18.95,6.95-18.96,15.52-1.8-.58-3.81-.92-5.94-.92-7.51,0-13.61,4.05-13.61,9.05,0,.71,.14,1.4,.37,2.07-3.65-1.53-8.83-2.49-14.58-2.49-10.29,0-18.77,3.06-19.89,6.99C7.5,31.19,0,34.74,0,38.98c0,1.42,.84,2.76,2.34,3.96,.88-3.88,8.05-7.05,17.5-7.96Z"/></g><path class="cls-2" d="M78.27,40.41c-6.1-.22-10.89-4.62-10.71-9.81,0-.03,0-.05,0-.08-.46,.98-.73,2.04-.78,3.15-.19,5.2,4.6,9.59,10.71,9.81,6.07,.22,11.15-3.77,11.38-8.93-1.66,3.57-5.83,6.03-10.62,5.85Z"/><path class="cls-2" d="M119.97,30.59c-6.1-.22-10.89-4.62-10.71-9.81,0-.03,0-.05,0-.08-.46,.98-.73,2.04-.78,3.15-.19,5.2,4.6,9.59,10.71,9.81,6.07,.22,11.15-3.77,11.38-8.93-1.66,3.57-5.83,6.03-10.62,5.85Z"/></g></g></svg>