<?xml version="1.0" encoding="UTF-8"?><svg id="Layer_2" xmlns="http://www.w3.org/2000/svg" viewBox="0 0 148.36 81.51"><defs><style>.cls-1{fill:#fff;}.cls-2{fill:#d0e6f4;}.cls-3{fill:#e8f3fa;}</style></defs><g id="Layer_1-2"><g><path class="cls-3" d="M126.71,34.73c11.26-3.4,18.66-9.17,18.66-15.72C145.38,8.56,126.54,.09,103.3,.09,81.67,.09,63.86,7.43,61.5,16.87c-3.68-1.19-7.9-1.87-12.4-1.87-14.29,0-25.88,6.88-25.88,15.36,0,2.59,1.08,5.02,2.99,7.16C10.95,39.9,0,46.37,0,53.98,0,63.6,17.5,71.4,39.1,71.4c11.78,0,22.34-2.33,29.5-6-1.37,2.11-1.96,4.32-1.56,6.47,1.37,7.34,13.71,11.19,27.55,8.6,13.03-2.44,22.75-9.71,22.7-16.68,2.68,.77,5.62,1.19,8.72,1.19,12.35,0,22.36-6.78,22.36-15.13s-9.63-14.87-21.65-15.12Z"/><g><path class="cls-2" d="M127.67,49.55c-3.09,0-6.04-.43-8.72-1.19,.05,6.97-9.66,14.24-22.7,16.68-13.84,2.59-26.17-1.26-27.55-8.6-.4-2.15,.19-4.36,1.56-6.47-7.17,3.67-17.72,6-29.5,6-15.92,0-29.61-4.24-35.7-10.33-3.22,2.53-5.06,5.46-5.06,8.57,0,9.62,17.5,17.43,39.1,17.43,11.78,0,22.34-2.33,29.5-6-1.37,2.11-1.96,4.32-1.56,6.47,1.37,7.34,13.71,11.19,27.55,8.6,13.03-2.44,22.75-9.71,22.7-16.68,2.68,.77,5.62,1.19,8.72,1.19,12.35,0,22.36-6.78,22.36-15.13,0-2.49-.9-4.83-2.47-6.9-4.05,3.85-10.7,6.37-18.22,6.37Z"/><path class="cls-1" d="M50.52,21.1c4.49,0,8.71,.68,12.4,1.87,2.36-9.44,20.17-16.78,41.8-16.78,19.42,0,35.76,5.92,40.61,13.96,.06-.41,.09-.82,.09-1.23,0-10.45-18.84-18.92-42.08-18.92-21.63,0-39.44,7.34-41.8,16.78-3.68-1.19-7.9-1.87-12.4-1.87-14.29,0-25.88,6.88-25.88,15.36,0,1.77,.52,3.47,1.45,5.05,.98-7.95,12.15-14.23,25.8-14.23Z"/></g><path class="cls-2" d="M71.64,48.57c-5.94,1.43-11.74-1.51-12.95-6.56,0-.03,0-.05-.01-.08-.18,1.06-.16,2.16,.1,3.24,1.22,5.05,7.02,7.99,12.95,6.56,5.91-1.42,9.72-6.63,8.56-11.66-.64,3.89-3.99,7.37-8.65,8.5Z"/><path class="cls-2" d="M116.76,34.26c-10.51-1.45-18.46-6.79-17.75-11.94,0-.03,.01-.05,.02-.08-.86,.89-1.42,1.89-1.57,2.99-.71,5.15,7.24,10.5,17.75,11.94,10.46,1.44,19.51-1.53,20.29-6.63-3.13,3.24-10.49,4.85-18.74,3.71Z"/></g></g></svg>