<?xml version="1.0" encoding="UTF-8"?><svg id="Layer_2" xmlns="http://www.w3.org/2000/svg" viewBox="0 0 226.04 77.26"><defs><style>.cls-1{fill:#fff;}.cls-2{fill:#d0e6f4;}.cls-3{fill:#e8f3fa;}</style></defs><g id="Layer_1-2"><g><path class="cls-3" d="M185.17,17.16c-5.88-1.08-11.62-1.44-17.01-1.18C164.52,7.71,151.42,1.03,135.46,.11c-18.08-1.05-33.38,5.65-35.64,15.23-5.01-2.74-11.86-4.42-19.41-4.42-12.88,0-23.71,4.91-26.88,11.56-5.68-3.18-13.39-5.14-21.88-5.14C14.17,17.33,0,25.62,0,35.83s14.17,18.5,31.64,18.5c6.76,0,13.02-1.24,18.16-3.35-1.94,2.4-3.02,5.1-3.02,7.94,0,10.13,13.76,18.34,30.73,18.34,11.99,0,22.38-4.1,27.44-10.09,5.26,5.96,16.59,10.09,29.73,10.09s23.37-3.73,28.93-9.23c3.67,1.29,7.58,2.35,11.67,3.1,25.15,4.61,47.76-3.73,50.49-18.63,2.73-14.9-15.44-30.72-40.59-35.33Z"/><g><path class="cls-2" d="M184.75,58.59c-4.1-.75-8.01-1.81-11.67-3.1-5.56,5.5-16.43,9.23-28.93,9.23-13.14,0-24.47-4.13-29.73-10.09-5.06,5.98-15.44,10.09-27.44,10.09-16.97,0-30.73-8.21-30.73-18.34,0-2.85,1.09-5.54,3.02-7.94-5.14,2.11-11.4,3.35-18.16,3.35-17.48,0-31.64-8.28-31.64-18.5,0-.23,.02-.45,.03-.68C3.64,25.98,0,30.65,0,35.83c0,10.22,14.17,18.5,31.64,18.5,6.76,0,13.02-1.24,18.16-3.35-1.94,2.4-3.02,5.1-3.02,7.94,0,10.13,13.76,18.34,30.73,18.34,11.99,0,22.38-4.1,27.44-10.09,5.26,5.96,16.59,10.09,29.73,10.09s23.37-3.73,28.93-9.23c3.67,1.29,7.58,2.35,11.67,3.1,24.85,4.56,47.21-3.54,50.37-18.11-9.45,6.12-24.64,8.55-40.89,5.57Z"/><path class="cls-1" d="M102.72,21.61c2.26-9.58,17.56-16.28,35.64-15.23,12.1,.7,23.42,4.28,29.78,9.57C164.48,7.69,151.4,1.03,135.46,.11c-18.08-1.05-33.38,5.65-35.64,15.23-5.01-2.74-11.86-4.42-19.41-4.42-12.38,0-22.84,4.54-26.45,10.8,6.2-3.84,17.42-5.72,27.22-5.72,7.55,0,16.53,2.87,21.54,5.61Z"/></g><path class="cls-2" d="M67.11,36.52c-7.28-.27-13.07-5.6-12.85-11.79,0-.03,0-.06,0-.09-.54,1.17-.8,2.52-.84,3.85-.23,6.19,5.49,11.43,12.76,11.7,7.24,.26,13.29-4.49,13.58-10.64-1.98,4.26-6.95,7.19-12.66,6.98Z"/><path class="cls-2" d="M174.67,53.44c-6.21-.23-11.16-4.78-10.97-10.07,0-.03,0-.05,0-.08-.46,1-.68,2.15-.72,3.29-.19,5.29,4.69,9.76,10.9,9.99,6.18,.23,11.35-3.84,11.59-9.09-1.69,3.64-5.93,6.14-10.81,5.96Z"/><path class="cls-2" d="M126.45,53.24c-8.49,2.67-16.95,.18-18.74-5.51,0-.03-.01-.06-.02-.09-.24,1.27-.08,2.6,.3,3.82,1.79,5.69,10.13,8.13,18.62,5.46,8.45-2.66,13.86-9.38,12.15-15.05-.88,4.65-5.64,9.27-12.31,11.37Z"/></g></g></svg>