<?xml version="1.0" encoding="UTF-8"?><svg id="Layer_2" xmlns="http://www.w3.org/2000/svg" viewBox="0 0 203.97 97.99"><defs><style>.cls-1{fill:#fff;}.cls-2{fill:#d0e6f4;}.cls-3{fill:#e8f3fa;}</style></defs><g id="Layer_1-2"><g><path class="cls-3" d="M166.68,10.98c-13.74-4.47-26.97-5.41-36.48-3.26-2.51-4.55-8.11-7.72-14.63-7.72-8.86,0-16.05,5.85-16.05,13.07,0,1.47,.31,2.88,.86,4.19-2.48-.92-5.31-1.44-8.31-1.44-9.81,0-17.77,5.55-17.77,12.39,0,.06,.01,.11,.01,.17-4.25-1.42-9.29-2.24-14.69-2.24-14.17,0-25.83,5.65-27.34,12.91C13.91,40.95,0,49.84,0,60.54c0,12.07,17.73,21.86,39.59,21.86,7.45,0,14.41-1.14,20.36-3.11-.22,.81-.34,1.65-.34,2.5,0,8.95,12.66,16.2,28.28,16.2,12.77,0,23.55-4.85,27.07-11.51,6.58,3.7,15.48,5.26,24.86,3.77,17.64-2.81,30.3-15.36,28.28-28.03-.38-2.37-1.24-4.58-2.52-6.59,18.93,3.38,34.77-.28,37.85-9.73,3.73-11.47-12.73-27.1-36.76-34.92Z"/><path class="cls-1" d="M115.57,7.11c6.52,0,12.12,3.17,14.63,7.72,9.52-2.15,22.75-1.21,36.48,3.26,19.37,6.3,33.82,17.68,36.73,27.87,0-.02,.02-.04,.02-.06,3.73-11.47-12.73-27.1-36.76-34.92-13.74-4.47-26.97-5.41-36.48-3.26-2.51-4.55-8.11-7.72-14.63-7.72-8.86,0-16.05,5.85-16.05,13.07,0,1.23,.23,2.41,.62,3.54,1.91-5.48,8.09-9.5,15.43-9.5Z"/><path class="cls-2" d="M146.24,73.74c-9.38,1.49-18.28-.07-24.86-3.77-3.52,6.66-14.3,11.51-27.07,11.51-15.62,0-28.28-7.25-28.28-16.2,0-.85,.12-1.68,.34-2.5-5.95,1.97-12.91,3.11-20.36,3.11-19.38,0-35.49-7.69-38.91-17.84C2.63,51.59,0,55.89,0,60.54,0,72.61,17.73,82.39,39.59,82.39c7.45,0,14.41-1.14,20.36-3.11-.22,.81-.34,1.65-.34,2.5,0,8.95,12.66,16.2,28.28,16.2,12.77,0,23.55-4.85,27.07-11.51,6.58,3.7,15.48,5.26,24.86,3.77,17.29-2.75,29.79-14.87,28.37-27.28-5.12,5.3-12.87,9.33-21.95,10.77Z"/><path class="cls-2" d="M47.71,51.44c-9.38-3.26-15.42-10.77-13.38-16.63,.01-.03,.03-.06,.04-.09-1.03,.9-1.74,2.09-2.18,3.35-2.04,5.86,3.92,13.25,13.31,16.51,9.34,3.24,18.54,1.18,20.64-4.61-3.78,3.27-11.05,4.03-18.42,1.47Z"/><path class="cls-2" d="M91.1,40.02c-9.4-.34-16.79-7.11-16.49-15.11,0-.04,0-.08,.01-.12-.7,1.51-1.13,3.14-1.2,4.86-.29,8,7.09,14.77,16.49,15.11,9.35,.34,17.17-5.81,17.54-13.75-2.56,5.51-8.98,9.28-16.36,9.01Z"/><path class="cls-2" d="M119.65,67.51c-6.45-.24-11.52-4.88-11.32-10.37,0-.03,0-.05,0-.08-.48,1.03-.78,2.15-.82,3.33-.2,5.49,4.87,10.13,11.32,10.37,6.42,.23,11.78-3.98,12.03-9.43-1.76,3.78-6.16,6.37-11.22,6.18Z"/></g></g></svg>