<?xml version="1.0" encoding="UTF-8"?><svg id="Layer_2" xmlns="http://www.w3.org/2000/svg" viewBox="0 0 135.55 66.97"><defs><style>.cls-1{fill:#fff;}.cls-2{fill:#d0e6f4;}.cls-3{fill:#e8f3fa;}.cls-4{fill:#d9e9f4;}</style></defs><g id="Layer_1-2"><g><path class="cls-3" d="M24.28,28.29S-2.02,29.52,.12,46.02c2.14,16.51,28.74,4.59,28.74,4.59,0,0,1.99,11.77,17.12,10.09,15.13-1.68,16.51-14.37,16.51-14.37,0,0,7.03,12.84,18.96-.76,0,0,0,16.82,16.66,20.64,16.66,3.82,21.1-7.8,21.1-7.8,0,0,7.95,6.27,14.37-2.75,6.42-9.02-4.89-11.31-4.89-11.31,0,0,7.8-2.9,3.67-8.71-4.13-5.81-11.01,.76-11.01,.76,0,0,4.13-13.76-9.02-21.71-13.15-7.95-23.08,3.21-23.08,3.21,0,0-3.82-15.44-18.04-4.59,0,0,.31-15.52-15.09-13.04-17.33,2.78-14.57,20.08-14.57,20.08,0,0-12-7.3-17.27,7.95Z"/><path class="cls-1" d="M54.3,4.7c15.39-2.47,15.09,13.04,15.09,13.04,14.22-10.85,18.22,4.66,18.22,4.66,0,0,9.94-11.16,23.08-3.21,7.36,4.45,10.95,8.82,11.23,13.48,.28-4.65-.74-12.63-9.59-17.98-13.15-7.95-23.08,3.21-23.08,3.21,0,0-3.82-15.44-18.04-4.59,0,0,.31-15.52-15.09-13.04-14.46,2.32-14.93,14.74-14.69,18.79,.3-5.27,.79-12.42,12.87-14.36Z"/><path class="cls-2" d="M133.28,46.41c-6.37,8.43-14.07,2.36-14.07,2.36,0,0-4.43,11.62-21.1,7.8-16.66-3.82-16.66-20.64-16.66-20.64-11.92,13.61-18.96,.76-18.96,.76,0,0-1.38,12.69-16.51,14.37s-17.12-10.09-17.12-10.09c0,0-22.94,10.27-27.92-1.5-.8,1.86-1.15,4.02-.82,6.54,2.14,16.51,28.74,4.59,28.74,4.59,0,0,1.99,11.77,17.12,10.09s16.51-14.37,16.51-14.37c0,0,7.03,12.84,18.96-.76,0,0,0,16.82,16.66,20.64,16.66,3.82,21.1-7.8,21.1-7.8,0,0,7.95,6.27,14.37-2.75,3.34-4.7,1.88-7.57-.3-9.24Z"/><path class="cls-4" d="M33.19,36.45c-4.81,0-8.72-3.9-8.72-8.72,0-.02,0-.05,0-.07-.33,.92-.52,1.91-.52,2.94,0,4.81,3.9,8.72,8.72,8.72s8.67-3.86,8.71-8.64c-1.21,3.36-4.42,5.77-8.19,5.77Z"/><path class="cls-4" d="M84.86,36.45c-4.81,0-8.72-3.9-8.72-8.72,0-.02,0-.05,0-.07-.33,.92-.52,1.91-.52,2.94,0,4.81,3.9,8.72,8.72,8.72s8.67-3.86,8.71-8.64c-1.21,3.36-4.42,5.77-8.19,5.77Z"/></g></g></svg>