<?xml version="1.0" encoding="UTF-8"?><svg id="Layer_2" xmlns="http://www.w3.org/2000/svg" viewBox="0 0 79.53 51.13"><defs><style>.cls-1{fill:#fff;}.cls-2{fill:#d0e6f4;}.cls-3{fill:#e8f3fa;}</style></defs><g id="Layer_1-2"><g><path class="cls-3" d="M79.51,18.13c-.32-5.56-5.71-9.78-12.04-9.41-2.93,.17-5.54,1.3-7.48,3,0-.13,.03-.25,.03-.38C60.02,5.27,52.81,.34,43.91,.34c-8.39,0-15.27,4.38-16.03,9.97-.59-.35-1.28-.57-2.02-.57-1.63,0-3.03,.98-3.64,2.39-1.66-4.31-5.83-7.38-10.72-7.38C5.15,4.76,0,9.9,0,16.25,0,19.95,1.76,23.23,4.47,25.34,1.91,25.78,0,27.54,0,29.64,0,32.07,2.57,34.05,5.75,34.05c1.7,0,3.22-.57,4.27-1.47-.13,.51-.21,1.04-.21,1.58,0,4.94,5.8,8.94,12.96,8.94,4.51,0,8.48-1.59,10.8-4,1.34,6.82,8.36,12.03,16.83,12.03,7.92,0,14.56-4.54,16.49-10.7,.93,.53,1.99,.84,3.12,.84,3.6,0,6.53-3.08,6.53-6.89,0-2.87-1.66-5.32-4.02-6.36,4.32-1.66,7.26-5.54,7-9.89Z"/><path class="cls-1" d="M57.02,14.9c0,.13-.02,.25-.03,.38,1.94-1.71,4.54-2.84,7.48-3,6.33-.37,11.72,3.85,12.04,9.41,.08,1.44-.19,2.83-.74,4.1,2.44-1.99,3.92-4.87,3.74-8-.32-5.56-5.71-9.78-12.04-9.41-2.93,.17-5.54,1.3-7.48,3,0-.13,.03-.25,.03-.38,0-6.08-7.21-11.01-16.11-11.01-7.35,0-13.55,3.37-15.48,7.97,2.95-2.48,7.44-4.07,12.48-4.07,8.9,0,16.11,4.93,16.11,11.01Z"/><path class="cls-2" d="M70,33.36c-1.13,0-2.19-.3-3.12-.84-1.94,6.15-8.58,10.7-16.49,10.7-8.48,0-15.49-5.21-16.83-12.03-2.32,2.41-6.29,4-10.8,4-7.16,0-12.96-4-12.96-8.94,0-.54,.08-1.07,.21-1.58-1.05,.9-2.57,1.47-4.27,1.47-.91,0-1.76-.17-2.52-.45-1.91,.72-3.23,2.21-3.23,3.95,0,2.44,2.57,4.41,5.75,4.41,1.7,0,3.22-.57,4.27-1.47-.13,.51-.21,1.04-.21,1.58,0,4.94,5.8,8.94,12.96,8.94,4.51,0,8.48-1.59,10.8-4,1.34,6.82,8.36,12.03,16.83,12.03,7.92,0,14.56-4.54,16.49-10.7,.93,.53,1.99,.84,3.12,.84,3.6,0,6.53-3.08,6.53-6.89,0-1.47-.44-2.83-1.19-3.95-1.18,1.77-3.13,2.93-5.34,2.93Z"/><path class="cls-2" d="M9.59,24.15C4.79,24.44,.65,20.79,.36,15.98c0-.02,0-.05,0-.07-.27,.94-.4,1.94-.34,2.97,.3,4.8,4.43,8.46,9.23,8.16,4.78-.29,8.42-4.39,8.16-9.16-1,3.43-4.05,6.03-7.82,6.27Z"/><path class="cls-2" d="M34.31,31.05c-2.94,.18-5.47-2.06-5.65-5,0-.01,0-.03,0-.04-.17,.58-.25,1.19-.21,1.82,.18,2.94,2.71,5.18,5.65,5s5.15-2.69,5-5.61c-.61,2.1-2.48,3.69-4.79,3.84Z"/><path class="cls-2" d="M42.95,32.62c-2.84-.79-4.51-3.73-3.72-6.57,0-.01,0-.03,.01-.04-.35,.49-.62,1.04-.79,1.65-.79,2.84,.88,5.78,3.72,6.57,2.83,.78,5.75-.86,6.55-3.68-1.26,1.79-3.55,2.69-5.78,2.07Z"/></g></g></svg>