<?xml version="1.0" encoding="UTF-8"?><svg id="Layer_2" xmlns="http://www.w3.org/2000/svg" viewBox="0 0 146.64 56.48"><defs><style>.cls-1{fill:#fff;}.cls-2{fill:#d0e6f4;}.cls-3{fill:#e8f3fa;}</style></defs><g id="Layer_1-2"><g><path class="cls-3" d="M131.58,19.49c-4.81,0-9.09,1.95-11.85,4.96,0-5.7-5-10.31-11.16-10.31-2.68,0-5.13,.87-7.06,2.33-.03-.86-.13-1.73-.31-2.59-2.09-9.9-13.76-15.82-26.05-13.22-11.75,2.49-19.81,11.85-18.68,21.31-1.12-.69-2.53-1.1-4.06-1.1-3.13,0-5.75,1.72-6.46,4.04-2.13-2.35-5.43-4.41-9.39-5.6-7.96-2.4-15.59-.43-17.04,4.4-.48,1.6-.21,3.31,.64,4.97C9.02,29.12,.82,32.51,.06,37.73c-1.05,7.14,12.2,15,29.58,17.55,17.38,2.55,32.33-1.17,33.37-8.32,.04-.26,.05-.52,.05-.78,4.3,1.62,10.8,2.66,18.07,2.66,12.96,0,23.46-3.29,23.46-7.34,0-.33-.08-.66-.21-.98,18.13,8.05,27.2,4.8,27.2,4.8,8.32,0,15.06-5.78,15.06-12.92s-6.74-12.92-15.06-12.92Z"/><path class="cls-1" d="M45.9,26.7c.6,2.92,4.26,3.88,6.5,1.93,1.64-1.43,3.75-2.59,5.49-2.59,1.53,0,2.93,.41,4.06,1.1-1.13-9.46,8.35-20.84,20.09-23.33,4.4-.93,8.72-.75,12.55,.29-4.99-3.55-12.09-5.05-19.43-3.5-11.75,2.49-19.81,11.85-18.68,21.31-1.12-.69-2.53-1.1-4.06-1.1-2.55,0-4.75,1.15-5.86,2.83-.73,1.06-.87,2.09-.67,3.06Z"/><path class="cls-2" d="M131.58,36.24s-9.07,3.25-27.2-4.8c.14,.32,.21,.65,.21,.98,0,4.05-10.51,7.34-23.46,7.34-7.27,0-13.77-1.03-18.07-2.66,0,.26-.01,.52-.05,.78-1.05,7.14-15.99,10.87-33.37,8.32-12.72-1.87-23.22-6.57-27.53-11.76-1.13,1.09-1.85,2.33-2.05,3.69-1.05,7.14,12.2,15,29.58,17.55,17.38,2.55,32.33-1.17,33.37-8.32,.04-.26,.05-.52,.05-.78,4.3,1.62,10.8,2.66,18.07,2.66,12.96,0,23.46-3.29,23.46-7.34,0-.33-.08-.66-.21-.98,18.13,8.05,27.2,4.8,27.2,4.8,8.32,0,15.06-5.78,15.06-12.92,0-1.67-.38-3.27-1.06-4.74-2.2,4.79-7.63,8.18-14,8.18Z"/><path class="cls-2" d="M22.01,30.35c-2.14-4.31-.37-9.54,3.94-11.68,.02-.01,.04-.02,.07-.03-.97,.11-1.94,.38-2.87,.84-4.31,2.14-6.08,7.37-3.94,11.68s7.31,6.06,11.61,3.97c-3.55,.41-7.13-1.39-8.81-4.78Z"/><path class="cls-2" d="M98.96,23.91c-1.42-2.86-.26-6.32,2.57-7.73,.01,0,.03-.01,.04-.02-.64,.07-1.28,.25-1.89,.55-2.84,1.41-3.99,4.87-2.57,7.73s4.83,4.02,7.66,2.65c-2.34,.26-4.7-.94-5.82-3.18Z"/></g></g></svg>