<?xml version="1.0" encoding="UTF-8"?><svg id="Layer_2" xmlns="http://www.w3.org/2000/svg" viewBox="0 0 156.13 51.29"><defs><style>.cls-1{fill:#fff;}.cls-2{fill:#d0e6f4;}.cls-3{fill:#e8f3fa;}</style></defs><g id="Layer_1-2"><g><path class="cls-3" d="M116.4,7.7c-7.29,0-14.11,.84-19.98,2.3-2.35-3.95-8.02-6.74-14.66-6.74-3.76,0-7.21,.9-9.92,2.39C68.61,.33,59.82-1.59,51,1.44c-8.9,3.06-14.69,10.08-13.83,16.3-1.37-.07-2.75-.11-4.16-.11C14.81,17.63,.06,23.59,.06,30.93s14.75,13.3,32.94,13.3c11.49,0,21.59-2.37,27.49-5.97-.47,1.19-.65,2.4-.49,3.61,.87,6.59,11.31,10.64,23.32,9.05,9.27-1.23,16.75-5.45,19.29-10.34,4.29,.68,8.94,1.05,13.78,1.05,21.94,0,39.73-7.6,39.73-16.97S138.35,7.7,116.4,7.7Z"/><g><path class="cls-2" d="M108.51,30.75c-2.54,4.89-10.03,9.11-19.29,10.34-12.01,1.59-22.45-2.46-23.32-9.05-.16-1.21,.02-2.43,.49-3.61-5.9,3.6-16,5.97-27.49,5.97-16.49,0-30.14-4.89-32.56-11.27-3.97,2.2-6.33,4.9-6.33,7.83,0,7.35,14.75,13.3,32.94,13.3,11.49,0,21.59-2.37,27.49-5.97-.47,1.19-.65,2.4-.49,3.61,.87,6.59,11.31,10.64,23.32,9.05,9.27-1.23,16.75-5.45,19.29-10.34,4.29,.68,8.94,1.05,13.78,1.05,21.94,0,39.73-7.6,39.73-16.97,0-.3-.02-.6-.06-.9-7.02,4.8-19.5,8-33.73,8-4.85,0-9.49-.37-13.78-1.05Z"/><path class="cls-1" d="M49.03,7.48c8.82-3.03,17.61-1.11,20.84,4.22,2.71-1.49,6.16-2.39,9.92-2.39,6.64,0,12.31,2.79,14.66,6.74,16.77-6.34,28.56-5.42,35.85-5.42,3,0,5.91,.15,8.72,.42-6.42-1.91-14.22-3.03-22.64-3.03-7.29,0-14.11,.84-19.98,2.3-2.35-3.95-8.02-6.74-14.66-6.74-3.76,0-7.21,.9-9.92,2.39-3.23-5.32-12.02-7.24-20.84-4.22-7.92,2.72-13.37,8.59-13.87,14.23,.13-.11,.28-.21,.42-.32,2.4-3.43,6.44-6.45,11.5-8.19Z"/></g><path class="cls-2" d="M63.47,29.36c-4.14,0-7.49-2.85-7.49-6.37,0-.02,0-.03,0-.05-.28,.67-.45,1.4-.45,2.15,0,3.52,3.35,6.37,7.49,6.37s7.45-2.83,7.48-6.32c-1.04,2.46-3.79,4.22-7.04,4.22Z"/><path class="cls-2" d="M108.37,30.29c-2.42,.58-4.79-.62-5.28-2.68,0-.01,0-.02,0-.03-.07,.43-.06,.88,.04,1.32,.5,2.06,2.86,3.26,5.28,2.68s3.96-2.71,3.49-4.76c-.26,1.59-1.63,3.01-3.53,3.47Z"/></g></g></svg>