<?xml version="1.0" encoding="UTF-8"?><svg id="Layer_2" xmlns="http://www.w3.org/2000/svg" viewBox="0 0 165.71 67"><defs><style>.cls-1{fill:#fff;}.cls-2{fill:#d0e6f4;}.cls-3{fill:#e8f3fa;}</style></defs><g id="Layer_1-2"><g><path class="cls-3" d="M140.97,16.92c-1.75-5.06-11.57-8.93-23.42-8.93-4.35,0-8.43,.53-11.94,1.44C104.64,4.12,98.97,.04,92.11,.04s-12.92,4.34-13.61,9.9c-1.66-3.16-4.97-5.32-8.79-5.32-5.49,0-9.94,4.45-9.94,9.94,0,.19,.02,.38,.03,.57-2.47-1.03-5.38-1.64-8.5-1.64-8.91,0-16.14,4.86-16.14,10.85,0,1.85,.69,3.6,1.91,5.12-2.23-.25-4.56-.39-6.96-.39C13.48,29.09,0,35.45,0,43.3s13.48,14.22,30.11,14.22c7.59,0,14.52-1.33,19.82-3.52,0,.1-.03,.2-.03,.31,0,7.01,9.45,12.69,21.1,12.69,9.72,0,17.88-3.96,20.33-9.33,3.56,2.53,8.77,4.13,14.6,4.13,10.72,0,19.41-5.41,19.41-12.08,0-1.31-.34-2.56-.96-3.74,4.14,1.5,9.03,2.37,14.26,2.37,14.94,0,27.06-7.05,27.06-15.75,0-8.24-10.88-15-24.74-15.68Z"/><path class="cls-1" d="M69.69,8.71c3.82,0,7.13,2.16,8.79,5.32,.69-5.56,6.52-9.9,13.61-9.9s12.54,4.08,13.51,9.39c3.51-.91,7.58-1.44,11.94-1.44,11.85,0,21.66,3.87,23.42,8.93,12.68,.63,22.86,6.34,24.5,13.62,.15-.67,.24-1.36,.24-2.06,0-8.24-10.88-15-24.74-15.68-1.75-5.06-11.57-8.93-23.42-8.93-4.35,0-8.43,.53-11.94,1.44-.98-5.31-6.64-9.39-13.51-9.39s-12.92,4.34-13.61,9.9c-1.66-3.16-4.97-5.32-8.79-5.32-5.49,0-9.94,4.45-9.94,9.94,0,.12,.01,.25,.02,.37,1.72-3.62,5.76-6.18,9.92-6.18Z"/><path class="cls-2" d="M96.53,45.97c-2.45,5.38-10.61,9.33-20.33,9.33-11.65,0-21.1-5.68-21.1-12.69,0-.1,.02-.21,.03-.31-5.3,2.19-12.23,3.52-19.82,3.52-14.35,0-26.34-4.74-29.37-11.08-3.73,2.37-5.94,5.3-5.94,8.48,0,7.85,13.48,14.22,30.11,14.22,7.59,0,14.52-1.33,19.82-3.52,0,.1-.03,.2-.03,.31,0,7.01,9.45,12.69,21.1,12.69,9.72,0,17.88-3.96,20.33-9.33,3.56,2.53,8.77,4.13,14.6,4.13,10.72,0,19.41-5.41,19.41-12.08,0-1.04-.22-2.04-.62-3-3.5,2.14-8.3,3.46-13.59,3.46-5.83,0-11.04-1.6-14.6-4.13Z"/><path class="cls-2" d="M44.7,29.33c-4.1,1.11-8.32-1.3-9.43-5.4,0-.02,0-.04-.01-.06-.07,.86,0,1.74,.24,2.62,1.11,4.1,5.34,6.51,9.43,5.4s6.49-5.29,5.41-9.37c-.25,3.14-2.42,5.93-5.64,6.81Z"/><path class="cls-2" d="M102.91,42.79c-7.03,1.91-14.04-1.39-15.67-7.37,0-.03-.01-.06-.02-.09-.17,1.28-.11,2.58,.23,3.86,1.63,5.98,8.64,9.28,15.67,7.37,6.99-1.9,11.35-8.24,9.8-14.2-.63,4.66-4.5,8.93-10.01,10.43Z"/></g></g></svg>