<?xml version="1.0" encoding="UTF-8"?><svg id="Layer_2" xmlns="http://www.w3.org/2000/svg" viewBox="0 0 141.32 70.62"><defs><style>.cls-1{fill:#fff;}.cls-2{fill:#d0e6f4;}.cls-3{fill:#e8f3fa;}</style></defs><g id="Layer_1-2"><g><path class="cls-3" d="M113.35,25.68c-3.57,0-6.97,.4-10.11,1.11,3.28-2.84,5.3-6.59,5.3-10.7,0-8.89-9.31-16.09-20.79-16.09-8.58,0-15.95,4.03-19.12,9.77-1.83-3.21-5.51-5.41-9.76-5.41-6.07,0-11,4.48-11,10.01,0,.23,.02,.46,.04,.68-2.5-1.33-5.69-2.13-9.15-2.13-8.06,0-14.6,4.31-14.6,9.63,0,2.12,1.05,4.08,2.82,5.67C11.6,29.74,0,36.55,0,44.71,0,54,14.99,61.53,33.48,61.53c5.95,0,11.53-.78,16.37-2.15,.16,6.23,7.07,11.24,15.58,11.24,7.08,0,13.05-3.47,14.95-8.23,2.13,2.61,5.68,4.33,9.69,4.33,6.37,0,11.55-4.31,11.79-9.7,3.51,.93,7.39,1.45,11.49,1.45,15.45,0,27.97-7.34,27.97-16.39s-12.52-16.39-27.97-16.39Z"/><g><path class="cls-2" d="M113.63,47.16c-4.1,0-7.98-.52-11.49-1.45-.24,5.39-5.42,9.7-11.79,9.7-4.02,0-7.56-1.71-9.69-4.33-1.9,4.75-7.87,8.23-14.95,8.23-8.51,0-15.42-5.02-15.58-11.24-4.84,1.37-10.42,2.15-16.37,2.15-14.69,0-27.16-4.75-31.67-11.36-1.35,1.83-2.09,3.8-2.09,5.86,0,9.29,14.99,16.82,33.48,16.82,5.95,0,11.53-.78,16.37-2.15,.16,6.23,7.07,11.24,15.58,11.24,7.08,0,13.05-3.47,14.95-8.23,2.13,2.61,5.68,4.33,9.69,4.33,6.37,0,11.55-4.31,11.79-9.7,3.51,.93,7.39,1.45,11.49,1.45,15.45,0,27.97-7.34,27.97-16.39,0-1.9-.56-3.73-1.58-5.43-4.03,6.15-14.2,10.51-26.11,10.51Z"/><path class="cls-1" d="M41.02,19.34c2.91,0,5.61,.57,7.88,1.54,.39-.65,.87-1.26,1.41-1.81,.9-4.71,5.4-8.29,10.82-8.29,4.25,0,7.93,2.2,9.76,5.41,3.17-5.74,10.54-9.77,19.12-9.77,8.01,0,14.95,3.51,18.42,8.65-.68-8.41-9.69-15.07-20.72-15.07-8.58,0-15.95,4.03-19.12,9.77-1.83-3.21-5.51-5.41-9.76-5.41-6.07,0-11,4.48-11,10.01,0,.23,.02,.46,.04,.68-2.5-1.33-5.69-2.13-9.15-2.13-8.06,0-14.6,4.31-14.6,9.63,0,1.95,.9,3.75,2.41,5.27,.87-4.77,7.01-8.48,14.48-8.48Z"/></g><path class="cls-2" d="M51.28,45.76c-6.81,0-12.34-5.19-12.34-11.6,0-.03,0-.06,0-.1-.47,1.22-.74,2.54-.74,3.92,0,6.4,5.52,11.6,12.34,11.6,6.78,0,12.28-5.14,12.33-11.5-1.71,4.48-6.25,7.68-11.6,7.68Z"/><path class="cls-2" d="M102.3,44.88c-3.63,2.32-7.92,2.08-9.59-.52,0-.01-.01-.03-.02-.04,.07,.66,.27,1.28,.63,1.85,1.67,2.61,5.96,2.84,9.59,.52s5.2-6.27,3.58-8.88c.25,2.4-1.33,5.25-4.18,7.08Z"/><path class="cls-2" d="M69.81,39.49c-2.65,1.69-6.14,.95-7.81-1.66,0-.01-.01-.03-.02-.04,.14,.61,.37,1.22,.73,1.78,1.67,2.61,5.16,3.35,7.81,1.66,2.63-1.68,3.43-5.14,1.8-7.74,.5,2.25-.43,4.68-2.51,6.01Z"/></g></g></svg>