<?xml version="1.0" encoding="UTF-8"?><svg id="Layer_2" xmlns="http://www.w3.org/2000/svg" viewBox="0 0 151.7 57.97"><defs><style>.cls-1{fill:#fff;}.cls-2{fill:#d0e6f4;}.cls-3{fill:#e8f3fa;}</style></defs><g id="Layer_1-2"><g><path class="cls-3" d="M121.77,18.92c-4.84,0-9.41,.63-13.45,1.75,.47-.86,.73-1.8,.73-2.78,0-3.99-4.21-7.22-9.4-7.22-2.37,0-4.53,.68-6.18,1.79-1.38-7.08-7.91-12.45-15.77-12.45-8.86,0-16.05,6.83-16.05,15.25,0,.39,.03,.78,.06,1.17-2.34-1.85-5.64-3-9.3-3-7.06,0-12.78,4.27-12.84,9.55-4.74-1.13-10.62-1.26-16.81-.1C8.89,25.47-1.24,33.5,.12,40.81c1.37,7.31,13.73,11.14,27.6,8.54,5.28-.99,10.02-2.76,13.79-4.99-.36,.85-.56,1.73-.56,2.64,0,6.02,8.23,10.89,18.38,10.89s18.38-4.88,18.38-10.89c0-.3-.04-.59-.07-.88l.34,.07c-.16,.49-.26,.98-.26,1.5,0,4.62,7.02,8.37,15.67,8.37,7.17,0,13.19-2.57,15.06-6.08,4.02,1.1,8.54,1.72,13.34,1.72,16.53,0,29.92-7.34,29.92-16.39s-13.4-16.39-29.92-16.39Z"/><g><path class="cls-2" d="M113.54,39.36c-1.87,3.51-7.9,6.08-15.06,6.08-8.66,0-14.85-7.22-15.01-6.97-3.9,5.77-8.89,8.81-19.04,8.81s-18.38-4.88-18.38-10.89c0-.91,.21-1.79,.56-2.64-3.77,2.22-8.51,4-13.79,4.99-13.67,2.56-25.87-1.12-27.53-8.23C1.48,33.67-.54,37.36,.12,40.89c1.37,7.31,13.73,11.14,27.6,8.54,5.28-.99,10.02-2.76,13.79-4.99-.36,.85-.56,1.73-.56,2.64,0,6.02,8.23,10.89,18.38,10.89s18.38-4.88,18.38-10.89c0-.3-.04-.59-.07-.88l.34,.07c-.16,.49-.26,.98-.26,1.5,0,4.62,7.02,8.37,15.67,8.37,7.17,0,13.19-2.57,15.06-6.08,4.02,1.1,8.54,1.72,13.34,1.72,16.53,0,29.92-7.34,29.92-16.39,0-.49-.05-.97-.12-1.44-5.39,4.31-14.44,7.14-24.7,7.14-4.79,0-9.32-.62-13.34-1.72Z"/><path class="cls-1" d="M74.98,4.28c7.86,0,14.38,5.37,15.77,12.45,1.65-1.11,3.81-1.79,6.18-1.79,5.19,0,9.4,3.23,9.4,7.22,0,.99-.26,1.93-.72,2.78,4.04-1.12,8.61-1.75,13.45-1.75,16.53,0,29.92,7.34,29.92,16.39,0,1.03-.19,2.03-.52,3.01,1.99-2.2,3.12-4.67,3.12-7.29,0-9.05-13.4-16.39-29.92-16.39-4.84,0-9.41,.63-13.45,1.75,.47-.86,.72-1.8,.72-2.78,0-3.99-4.21-7.22-9.4-7.22-2.37,0-4.53,.68-6.18,1.79-1.38-7.08-7.91-12.45-15.77-12.45-6.86,0-12.69,4.1-14.98,9.86,2.94-3.4,7.39-5.58,12.39-5.58Z"/></g><path class="cls-2" d="M50.29,31.39c-5.64,.35-10.47-3.62-10.79-8.86,0-.03,0-.05,0-.08-.33,1.03-.48,2.12-.41,3.24,.32,5.24,5.16,9.21,10.79,8.86s9.9-4.83,9.62-10.04c-1.19,3.75-4.79,6.61-9.21,6.88Z"/><path class="cls-2" d="M84.87,38.04c-3.93,.24-7.3-2.52-7.53-6.18,0-.02,0-.04,0-.05-.23,.72-.34,1.48-.29,2.26,.23,3.66,3.6,6.42,7.53,6.18,3.91-.24,6.9-3.37,6.71-7-.83,2.62-3.34,4.61-6.42,4.8Z"/></g></g></svg>