<?xml version="1.0" encoding="UTF-8"?><svg id="Layer_2" xmlns="http://www.w3.org/2000/svg" viewBox="0 0 135.51 69.07"><defs><style>.cls-1{fill:#fff;}.cls-2{fill:#d0e6f4;}.cls-3{fill:#e8f3fa;}</style></defs><g id="Layer_1-2"><g><path class="cls-3" d="M102.11,26.9c.54-.99,.84-2.08,.84-3.23,0-4.37-4.31-7.91-9.63-7.91-.22,0-.43,.02-.64,.03,1.48-1.64,2.36-3.67,2.36-5.87C95.04,4.46,89.71,.05,83.12,.05s-11.92,4.41-11.92,9.86c0,.64,.08,1.26,.22,1.87-3.3-1.79-7.7-2.9-12.54-2.9-10.23,0-18.52,4.88-18.52,10.89,0,.88,.2,1.73,.53,2.54-2.4-.31-4.9-.48-7.47-.48C14.96,21.83,0,30.33,0,40.81s14.96,18.97,33.42,18.97c6.96,0,13.42-1.21,18.77-3.28-.49,.92-.75,1.91-.75,2.93,0,5.32,7.09,9.63,15.84,9.63,6.53,0,12.13-2.4,14.56-5.83,4.14,1.4,8.7,2.46,13.53,3.06,20.77,2.57,38.7-4.22,40.06-15.17,1.32-10.63-13.46-21.26-33.32-24.24Z"/><path class="cls-1" d="M61.51,14.56c4.85,0,9.24,1.1,12.54,2.9-.14-.6-.22-1.23-.22-1.87,0-5.45,5.34-9.86,11.92-9.86,3.74,0,7.07,1.42,9.26,3.65-.3-5.22-5.5-9.38-11.89-9.38s-11.92,4.41-11.92,9.86c0,.64,.08,1.26,.22,1.87-3.3-1.79-7.7-2.9-12.54-2.9-10.23,0-18.52,4.88-18.52,10.89,0,.72,.14,1.41,.36,2.09,3.47-4.24,12.68-7.25,20.79-7.25Z"/><path class="cls-2" d="M101.94,56.71c-4.84-.6-9.39-1.66-13.53-3.06-2.43,3.43-8.03,5.83-14.56,5.83-8.75,0-15.84-4.31-15.84-9.63,0-1.02,.27-2.01,.75-2.93-5.35,2.07-11.81,3.28-18.77,3.28-18.46,0-33.42-8.5-33.42-18.97,0-.66,.06-1.31,.18-1.95-4.23,3.18-6.75,7.14-6.75,11.43,0,10.48,14.96,18.97,33.42,18.97,6.96,0,13.42-1.21,18.77-3.28-.49,.92-.75,1.91-.75,2.93,0,5.32,7.09,9.63,15.84,9.63,6.53,0,12.13-2.4,14.56-5.83,4.14,1.4,8.7,2.46,13.53,3.06,20.75,2.57,38.67-4.21,40.06-15.14-7.28,4.97-19.76,7.36-33.48,5.66Z"/><path class="cls-2" d="M94.14,31.03c-5.94,1.43-11.74-1.51-12.95-6.56,0-.03,0-.05-.01-.08-.18,1.06-.16,2.16,.1,3.24,1.22,5.05,7.02,7.99,12.95,6.56,5.91-1.42,9.72-6.63,8.56-11.66-.64,3.89-3.99,7.37-8.65,8.5Z"/><path class="cls-2" d="M56.16,46.07c-4.39,1.06-8.67-1.11-9.57-4.85,0-.02,0-.04-.01-.06-.13,.79-.12,1.59,.08,2.4,.9,3.73,5.18,5.91,9.57,4.85,4.36-1.05,7.18-4.9,6.32-8.62-.47,2.87-2.95,5.45-6.39,6.28Z"/><path class="cls-2" d="M42.76,45.17c-2.69,.65-5.32-.68-5.87-2.97,0-.01,0-.02,0-.03-.08,.48-.07,.98,.05,1.47,.55,2.29,3.18,3.62,5.87,2.97s4.4-3.01,3.88-5.29c-.29,1.76-1.81,3.34-3.92,3.85Z"/></g></g></svg>