<?xml version="1.0" encoding="UTF-8"?><svg id="Layer_2" xmlns="http://www.w3.org/2000/svg" viewBox="0 0 166.8 48.44"><defs><style>.cls-1{fill:#fff;}.cls-2{fill:#d0e6f4;}.cls-3{fill:#e8f3fa;}</style></defs><g id="Layer_1-2"><g><g><path class="cls-3" d="M141.81,10.25c-6.66,0-12.7,1.39-17.18,3.66-1.54-5.95-11.45-10.54-23.46-10.54-8.48,0-15.91,2.29-20.09,5.73-.69-5.03-5.83-8.94-12.07-8.94s-10.93,3.58-11.95,8.3c-2.32-1.31-5.3-2.11-8.57-2.11-7.35,0-13.3,4-13.3,8.94,0,.85,.19,1.67,.52,2.45-2.97-.1-6.13,.05-9.4,.47C10.98,20.2-.71,27.47,.19,34.45c.9,6.98,14.06,11.04,29.39,9.05,8.32-1.08,15.56-3.71,20.3-7.02-.93,1.73-1.27,3.49-.85,5.16,1.51,5.96,11.92,8.47,23.26,5.6,7.11-1.8,12.89-5.28,15.84-9.1,2.96,4.03,11.42,6.94,21.4,6.94,11.78,0,21.45-4.05,22.44-9.22,3.02,.69,6.34,1.08,9.83,1.08,13.8,0,24.99-5.98,24.99-13.36s-11.19-13.36-24.99-13.36Z"/><path class="cls-2" d="M138.56,26.54c-.99,5.16-10.65,9.22-22.44,9.22-9.98,0-18.45-2.91-21.4-6.94-2.96,3.82-8.74,7.3-15.84,9.1-11.34,2.87-21.75,.36-23.26-5.6-.42-1.67-.08-3.43,.85-5.16-4.74,3.3-11.98,5.94-20.3,7.02-15.32,1.98-28.48-2.07-29.39-9.05-.02-.16-.03-.31-.03-.47C2.19,27.54-.39,31.03,.05,34.45c.9,6.98,14.06,11.04,29.39,9.05,8.32-1.08,15.56-3.71,20.3-7.02-.93,1.73-1.27,3.49-.85,5.16,1.51,5.96,11.92,8.47,23.26,5.6,7.11-1.8,12.89-5.28,15.84-9.1,2.96,4.03,11.42,6.94,21.4,6.94,11.78,0,21.45-4.05,22.44-9.22,3.02,.69,6.34,1.08,9.83,1.08,13.8,0,24.99-5.98,24.99-13.36,0-.08,0-.15-.01-.23-4.56,2.61-11.05,4.24-18.26,4.24-3.49,0-6.82-.38-9.83-1.08Z"/><path class="cls-2" d="M44.64,22.05c-4.8,.3-8.94-3.36-9.23-8.16,0-.02,0-.05,0-.07-.27,.94-.4,1.94-.34,2.97,.3,4.8,4.43,8.46,9.23,8.16,4.78-.29,8.42-4.39,8.16-9.16-1,3.43-4.05,6.03-7.82,6.27Z"/><path class="cls-2" d="M138.57,22.71c1.56,3.44,.03,7.49-3.41,9.05-.02,0-.04,.01-.05,.02,.77-.06,1.53-.25,2.27-.58,3.44-1.56,4.97-5.61,3.41-9.05-1.55-3.42-5.57-4.95-9-3.43,2.8-.22,5.56,1.29,6.78,3.99Z"/><path class="cls-2" d="M95.98,29.91c-3.75-.48-6.39-3.91-5.91-7.66,0-.02,0-.04,.01-.06-.35,.68-.6,1.43-.7,2.24-.48,3.75,2.16,7.17,5.91,7.66,3.73,.48,7.14-2.14,7.65-5.85-1.28,2.5-4.02,4.05-6.96,3.67Z"/></g><path class="cls-1" d="M79.72,12.43c4.18-3.44,14.14-5.69,22.61-5.44,.98,0,2.01,.06,3.06,.16,7.81,.58,11.74,1.11,17.57,3.51-3.58-4.37-12-7.45-21.82-7.45-8.48,0-15.91,2.29-20.09,5.73-.69-5.03-5.83-8.94-12.07-8.94-4.57,0-8.54,2.1-10.61,5.2,2.17-1.7,4.67-2.74,7.89-2.74,6.24,0,12.77,4.94,13.46,9.97Z"/></g></g></svg>