<?xml version="1.0" encoding="UTF-8"?><svg id="Layer_2" xmlns="http://www.w3.org/2000/svg" viewBox="0 0 191.48 97.43"><defs><style>.cls-1{fill:#fff;}.cls-2{fill:#d0e6f4;}.cls-3{fill:#e8f3fa;}</style></defs><g id="Layer_1-2"><g><path class="cls-3" d="M191.48,52.72c0-12.41-17.29-22.47-38.62-22.47-4.49,0-8.81,.45-12.82,1.27,.07-.61,.11-1.22,.11-1.85,0-11.46-11.7-20.75-26.14-20.75-6.64,0-12.7,1.97-17.31,5.21C92.61,5.88,84.66,.29,75.52,.29c-13.32,0-24.12,11.89-24.12,26.56,0,3.14,.5,6.15,1.41,8.95-5.39-.64-11.33-.54-17.47,.44C13.96,39.64-1.79,52.34,.16,64.61c1.95,12.27,20.87,19.45,42.26,16.05,8.29-1.32,15.73-4.04,21.63-7.59,.32,6.11,7.26,10.99,15.79,10.99,1.27,0,2.49-.12,3.67-.32,0,.02,0,.04,0,.05,0,7.53,11.6,13.64,25.91,13.64,11.92,0,21.96-4.24,24.98-10.02,2.71,3.02,6.89,4.97,11.6,4.97,8.17,0,14.79-5.85,14.79-13.07,0-1.59-.34-3.1-.92-4.5,17.98-1.92,31.61-11.08,31.61-22.1Z"/><g><path class="cls-2" d="M143.34,73.66c-3.02,5.77-13.05,10.02-24.98,10.02-14.31,0-25.91-6.11-25.91-13.64,0-.02,0-.04,0-.05-1.18,.2-2.41,.32-3.67,.32-8.53,0-15.47-4.88-15.79-10.99-5.9,3.55-13.34,6.27-21.63,7.59-21.39,3.4-40.31-3.78-42.26-16.05-.2-1.27-.2-2.53-.04-3.8C2.66,52.2-.82,58.46,.16,64.61c1.95,12.27,20.87,19.45,42.26,16.05,8.29-1.32,15.73-4.04,21.63-7.59,.32,6.11,7.26,10.99,15.79,10.99,1.27,0,2.49-.12,3.67-.32,0,.02,0,.04,0,.05,0,7.53,11.6,13.64,25.91,13.64,11.92,0,21.96-4.24,24.98-10.02,2.71,3.02,6.89,4.97,11.59,4.97,8.17,0,14.79-5.85,14.79-13.07,0-.58-.06-1.14-.14-1.7-1.76,.65-3.68,1.01-5.7,1.01-4.7,0-8.89-1.95-11.6-4.97Z"/><path class="cls-1" d="M75.59,6.53c9.14,0,17.08,5.59,21.17,13.84,4.61-3.24,10.67-5.21,17.31-5.21,11.94,0,22.74,6.28,26.12,14.94,.01-.24,.02-.48,.02-.72,0-11.46-11.7-20.75-26.14-20.75-6.64,0-12.7,1.97-17.31,5.21C92.67,5.59,84.73,0,75.59,0c-10.87,0-20.05,7.92-23.07,18.79,9.51-10.29,15.72-12.27,23.07-12.27Z"/></g><path class="cls-2" d="M64.71,41.99c-7.28-.27-13.07-5.6-12.85-11.79,0-.03,0-.06,0-.09-.54,1.17-.8,2.52-.84,3.85-.23,6.19,5.49,11.43,12.76,11.7,7.24,.26,13.29-4.49,13.58-10.64-1.98,4.26-6.95,7.19-12.66,6.98Z"/><path class="cls-2" d="M98.15,68.57c-7.28-.27-13.07-5.6-12.85-11.79,0-.03,0-.06,0-.09-.54,1.17-.8,2.52-.84,3.85-.23,6.19,5.49,11.43,12.76,11.7,7.24,.26,13.29-4.49,13.58-10.64-1.98,4.26-6.95,7.19-12.66,6.98Z"/><path class="cls-2" d="M156.65,49.21c-10.94-3.8-18.26-11.76-16.22-17.62,.01-.03,.03-.06,.04-.08-1.14,.86-1.89,2.04-2.33,3.3-2.04,5.86,5.18,13.68,16.12,17.49,10.88,3.78,21.34,2.15,23.45-3.63-4.17,3.14-12.48,3.53-21.07,.55Z"/></g></g></svg>