<?xml version="1.0" encoding="UTF-8"?><svg id="Layer_2" xmlns="http://www.w3.org/2000/svg" viewBox="0 0 203.34 110.15"><defs><style>.cls-1{fill:#fff;}.cls-2{fill:#d0e6f4;}.cls-3{fill:#e8f3fa;}</style></defs><g id="Layer_1-2"><g><path class="cls-3" d="M177.71,28.52c-.17,0-.34,0-.5,.01,.37-1.23,.56-2.5,.56-3.8,0-10.57-12.73-19.15-28.43-19.15-7.08,0-13.54,1.74-18.52,4.62C128.31,4.36,120.57,.09,111.39,.09c-11.21,0-20.29,6.36-20.29,14.22,0,1.05,.18,2.08,.49,3.06-.99-.05-1.99-.08-3.01-.08-18.74,0-33.94,9.09-33.94,20.29,0,1.47,.27,2.9,.76,4.28-3.16-.32-6.45-.5-9.82-.5C20.44,41.36,.06,50.75,.06,62.34s20.38,20.98,45.52,20.98c5.52,0,10.81-.45,15.7-1.28-4.15,2.96-6.64,6.71-6.64,10.8,0,9.56,13.6,17.31,30.38,17.31,12.39,0,23.04-4.23,27.77-10.29,6.55,5.4,17.08,8.91,28.96,8.91,19.87,0,35.97-9.8,35.97-21.9,0-4.42-2.16-8.53-5.86-11.98,1.88,.4,3.84,.62,5.86,.62,14.15,0,25.62-10.52,25.62-23.5s-11.47-23.5-25.62-23.5Z"/><path class="cls-1" d="M127.08,18.69c4.98-2.88,11.44-4.62,18.52-4.62,15.7,0,28.43,8.57,28.43,19.15,0,1.3-.19,2.57-.56,3.8,.17,0,.33-.01,.5-.01,14.15,0,25.62,10.52,25.62,23.5,0,1.42-.14,2.8-.41,4.15,2.57-3.67,4.08-8.03,4.08-12.71,0-12.98-11.47-23.5-25.62-23.5-.17,0-.34,0-.5,.01,.37-1.23,.56-2.5,.56-3.8,0-10.57-12.73-19.15-28.43-19.15-7.08,0-13.54,1.74-18.52,4.62-2.51-5.86-10.25-10.13-19.43-10.13-11.21,0-20.29,6.36-20.29,14.22,0,.14,.01,.27,.02,.41,3.67-3.66,9.73-6.06,16.61-6.06,9.18,0,16.92,4.27,19.43,10.13Z"/><path class="cls-2" d="M129.23,83.81c-4.73,6.06-15.38,10.29-27.77,10.29-16.78,0-30.38-7.75-30.38-17.31,0-4.09,2.49-7.84,6.64-10.8-4.89,.83-10.18,1.28-15.7,1.28-25.14,0-45.52-9.39-45.52-20.98,0-.04,0-.08,0-.12C6.43,50.02,0,55.83,0,62.34c0,11.59,20.38,20.98,45.52,20.98,5.52,0,10.81-.45,15.7-1.28-4.15,2.96-6.64,6.71-6.64,10.8,0,9.56,13.6,17.31,30.38,17.31,12.39,0,23.04-4.23,27.77-10.29,6.55,5.4,17.08,8.91,28.96,8.91,18.5,0,33.74-8.51,35.74-19.45-5.56,2.15-12.16,3.4-19.23,3.4-11.88,0-22.41-3.51-28.96-8.91Z"/><path class="cls-2" d="M68.15,45.41c-7.28-.27-13.07-5.6-12.85-11.79,0-.03,0-.06,0-.09-.54,1.17-.8,2.52-.84,3.85-.23,6.19,5.49,11.43,12.76,11.7,7.24,.26,13.29-4.49,13.58-10.64-1.98,4.26-6.95,7.19-12.66,6.98Z"/><path class="cls-2" d="M134.54,81.74c-9.4-.34-16.79-7.11-16.49-15.11,0-.04,0-.08,.01-.12-.7,1.51-1.13,3.14-1.2,4.86-.29,8,7.09,14.77,16.49,15.11,9.35,.34,17.17-5.81,17.54-13.75-2.56,5.51-8.98,9.28-16.36,9.01Z"/></g></g></svg>