<?xml version="1.0" encoding="UTF-8"?><svg id="Layer_2" xmlns="http://www.w3.org/2000/svg" viewBox="0 0 227.7 81.94"><defs><style>.cls-1{fill:#fff;}.cls-2{fill:#d0e6f4;}.cls-3{fill:#e8f3fa;}</style></defs><g id="Layer_1-2"><g><path class="cls-3" d="M199.2,30.59c-3.91-1.35-7.79-2.28-11.52-2.82,.42-1.42,.66-2.88,.66-4.38,0-12.92-16.49-23.39-36.84-23.39-14.1,0-26.34,5.03-32.54,12.41-6.89-6.61-17.83-10.89-30.15-10.89-20.86,0-37.77,12.25-37.77,27.36,0,1.3,.13,2.58,.38,3.83-5.23-2.32-11.5-3.68-18.24-3.68C14.85,29.04,0,39.04,0,51.36s14.85,22.32,33.17,22.32c4.76,0,9.27-.68,13.36-1.89,3.78,5.91,13.89,10.15,25.77,10.15,13.42,0,24.58-5.4,26.91-12.52,7.36,5.45,19.91,9.04,34.16,9.04,19.2,0,35.32-6.51,39.8-15.31,3.74,2.35,8.02,4.41,12.7,6.03,19.06,6.58,37.5,3.28,41.17-7.37,3.68-10.65-8.79-24.62-27.86-31.21Z"/><g><path class="cls-2" d="M220.13,43.07c-4.1,10.23-22.22,13.32-40.97,6.85-4.68-1.62-8.96-3.68-12.7-6.03-4.48,8.8-20.6,15.31-39.8,15.31-14.25,0-26.8-3.59-34.16-9.04-2.33,7.12-13.49,12.52-26.91,12.52-11.88,0-21.99-4.23-25.77-10.15-4.09,1.21-8.61,1.89-13.36,1.89-10.3,0-19.51-3.16-25.59-8.12-.56,1.62-.86,3.31-.86,5.05,0,12.33,14.85,22.32,33.17,22.32,4.76,0,9.27-.68,13.36-1.89,3.78,5.91,13.89,10.15,25.77,10.15,13.42,0,24.58-5.4,26.91-12.52,7.36,5.45,19.91,9.04,34.16,9.04,19.2,0,35.32-6.51,39.8-15.31,3.74,2.35,8.02,4.41,12.7,6.03,19.06,6.58,37.5,3.28,41.17-7.37,2.01-5.83-.82-12.66-6.92-18.73Z"/><path class="cls-1" d="M88.82,10.39c12.32,0,23.26,4.27,30.15,10.89,6.19-7.39,18.44-12.41,32.54-12.41,17.48,0,32.52,7.68,36.41,18.03,.27-1.15,.43-2.32,.43-3.51,0-12.92-16.49-23.39-36.84-23.39-14.1,0-26.34,5.03-32.54,12.41-6.89-6.61-17.83-10.89-30.15-10.89-20.86,0-37.77,12.25-37.77,27.36,0,.77,.06,1.53,.15,2.29,4.16-11.99,19.79-20.79,37.62-20.79Z"/></g><path class="cls-2" d="M175.69,31.76c-7.28-.27-13.07-5.6-12.85-11.79,0-.03,0-.06,0-.09-.54,1.17-.8,2.52-.84,3.85-.23,6.19,5.49,11.43,12.76,11.7s13.29-4.49,13.58-10.64c-1.98,4.26-6.95,7.19-12.66,6.98Z"/><path class="cls-2" d="M98.64,47.89c-7.16,1.31-13.97-2.65-15.08-8.75,0-.03,0-.06-.01-.09-.28,1.26-.23,2.63,0,3.94,1.11,6.1,7.82,9.98,14.98,8.68,7.13-1.3,12.01-7.25,10.97-13.31-1.02,4.59-5.24,8.51-10.86,9.54Z"/></g></g></svg>