<?xml version="1.0" encoding="UTF-8"?><svg id="Layer_2" xmlns="http://www.w3.org/2000/svg" viewBox="0 0 187.57 61.45"><defs><style>.cls-1{fill:#fff;}.cls-2{fill:#d0e6f4;}.cls-3{fill:#e8f3fa;}</style></defs><g id="Layer_1-2"><g><path class="cls-3" d="M150.8,16.05c-4.32,0-8.46,.41-12.31,1.17,.04-.2,.11-.4,.13-.61,.91-6.91-7.78-13.75-19.42-15.28-9.33-1.23-17.7,1.33-21.13,5.95-2.63-4.24-9.6-7.28-17.82-7.28-9.73,0-17.73,4.26-18.82,9.73-4.19-1.51-9.27-2.4-14.73-2.4-14.39,0-26.06,6.13-26.06,13.68,0,3.29,2.22,6.31,5.91,8.67C11.61,29.8,.54,33.14,.02,38.33c-.66,6.53,15.61,13.52,36.34,15.6,12.92,1.3,24.53,.39,31.59-2.06-.05,.29-.08,.58-.08,.87,0,4.81,7.43,8.71,16.59,8.71,6.26,0,11.7-1.82,14.52-4.51,3.69,2.7,10.27,4.51,17.81,4.51,9.23,0,17.04-2.7,19.84-6.45,4.36,1.01,9.15,1.56,14.18,1.56,20.3,0,36.76-9.07,36.76-20.25s-16.46-20.25-36.76-20.25Z"/><g><path class="cls-2" d="M151.24,44.06c-5.03,0-9.81-.56-14.18-1.56-2.79,3.75-10.61,6.45-19.84,6.45-7.53,0-14.12-1.81-17.81-4.51-2.83,2.69-8.27,4.51-14.52,4.51-9.16,0-16.59-3.9-16.59-8.71,0-.29,.03-.59,.08-.87-7.07,2.45-18.67,3.36-31.59,2.06-13.3-1.34-24.75-4.69-31.09-8.65C2.3,34.2,.24,36.05,.02,38.22c-.66,6.53,15.61,13.52,36.34,15.6,12.92,1.3,24.53,.39,31.59-2.06-.05,.29-.08,.58-.08,.87,0,4.81,7.43,8.71,16.59,8.71,6.26,0,11.7-1.82,14.52-4.51,3.69,2.7,10.27,4.51,17.81,4.51,9.23,0,17.04-2.7,19.84-6.45,4.36,1.01,9.15,1.56,14.18,1.56,20.3,0,36.76-9.07,36.76-20.25,0-2.02-.55-3.98-1.55-5.82-4.95,7.96-18.65,13.69-34.78,13.69Z"/><path class="cls-1" d="M46.74,14.33c5.47,0,10.54,.89,14.73,2.4,1.09-5.48,9.09-9.73,18.82-9.73,8.21,0,15.19,3.04,17.82,7.28,3.43-4.62,11.8-7.18,21.13-5.95,8.09,1.07,15.73,4.4,19.34,8.65,.03-.12,.06-.24,.08-.36,.91-6.91-7.78-13.75-19.42-15.28-9.33-1.23-17.7,1.33-21.13,5.95-2.63-4.24-9.6-7.28-17.82-7.28-9.73,0-17.73,4.26-18.82,9.73-4.19-1.51-9.27-2.4-14.73-2.4-14.39,0-26.06,6.13-26.06,13.68,0,1.21,.31,2.37,.87,3.48,2.95-5.85,13.11-10.17,25.19-10.17Z"/></g><path class="cls-2" d="M139.89,39.72c-5.14,1.24-10.17-1.31-11.22-5.69,0-.02,0-.04-.01-.07-.15,.92-.14,1.87,.09,2.81,1.06,4.38,6.08,6.93,11.22,5.69,5.12-1.23,8.42-5.75,7.42-10.11-.55,3.37-3.45,6.39-7.49,7.36Z"/><path class="cls-2" d="M67.19,39.53c-5.15-1.21-8.5-5.74-7.47-10.13,0-.02,.01-.04,.02-.06-.55,.76-.96,1.61-1.18,2.55-1.03,4.39,2.32,8.92,7.47,10.13,5.13,1.2,10.11-1.35,11.17-5.69-2.01,2.76-5.96,4.15-10,3.21Z"/><path class="cls-2" d="M28.82,27.48c-3.07,.79-6.11-.68-6.79-3.3,0-.01,0-.03,0-.04-.08,.55-.06,1.12,.08,1.68,.68,2.62,3.72,4.09,6.79,3.3s4.99-3.53,4.35-6.13c-.3,2.03-2.01,3.87-4.42,4.49Z"/></g></g></svg>