<?xml version="1.0" encoding="UTF-8"?><svg id="Layer_2" xmlns="http://www.w3.org/2000/svg" viewBox="0 0 199.34 86.91"><defs><style>.cls-1{fill:#fff;}.cls-2{fill:#d0e6f4;}.cls-3{fill:#e8f3fa;}</style></defs><g id="Layer_1-2"><g><path class="cls-3" d="M179.31,33.02c-2.68,0-5.24,.36-7.58,1,.05-.33,.09-.66,.09-1,0-6.59-8.97-11.92-20.03-11.92-4.41,0-8.47,.86-11.78,2.29,0-.03,0-.05,0-.08,0-6.97-7.25-12.61-16.2-12.61-3.83,0-7.34,1.04-10.11,2.76-2.48-7.74-11.24-13.47-21.65-13.47-12.35,0-22.36,8.04-22.36,17.96,0,2.58,.68,5.04,1.91,7.26-2.54-.49-5.29-.76-8.18-.76-12.58,0-22.78,5.13-22.78,11.46,0,1.01,.26,1.98,.74,2.91C18.48,38.99,0,47.27,0,57.48s18.82,18.65,42.04,18.65c12.12,0,23.04-2.28,30.71-5.92-.02,.24-.03,.48-.03,.72,0,8.78,12.19,15.9,27.23,15.9s27.23-7.12,27.23-15.9c0-.63-.07-1.24-.19-1.85,4.53,2.29,10.48,3.68,17,3.68,14.08,0,25.51-6.48,25.67-14.5,2.86,1.06,6.14,1.66,9.64,1.66,11.06,0,20.03-6.02,20.03-13.45s-8.97-13.45-20.03-13.45Z"/><g><path class="cls-2" d="M179.31,46.25c-3.5,0-6.78-.6-9.64-1.66-.16,8.02-11.59,14.5-25.67,14.5-6.52,0-12.47-1.39-17-3.68,.12,.61,.19,1.22,.19,1.85,0,8.78-12.19,15.9-27.23,15.9s-27.23-7.12-27.23-15.9c0-.24,.01-.48,.03-.72-7.67,3.64-18.59,5.92-30.71,5.92-17.74,0-32.9-4.88-39.07-11.77-1.91,2.13-2.97,4.45-2.97,6.88,0,10.3,18.82,18.65,42.04,18.65,12.12,0,23.04-2.28,30.71-5.92-.02,.24-.03,.48-.03,.72,0,8.78,12.19,15.9,27.23,15.9s27.23-7.12,27.23-15.9c0-.63-.07-1.24-.19-1.85,4.53,2.29,10.48,3.68,17,3.68,14.08,0,25.51-6.48,25.67-14.5,2.86,1.06,6.14,1.66,9.64,1.66,11.06,0,20.03-6.02,20.03-13.45,0-2.52-1.05-4.86-2.84-6.88-3.5,3.93-9.87,6.57-17.19,6.57Z"/><path class="cls-1" d="M71.62,20.03c-.07-.13-.13-.26-.2-.39,3.36-6.5,11.34-11.07,20.65-11.07,10.41,0,19.17,5.72,21.65,13.47,2.77-1.73,6.28-2.76,10.11-2.76,8.95,0,16.2,5.65,16.2,12.61,0,.03,0,.05,0,.08,3.31-1.44,1.58-3.39,17.51-6.71,2.51-.52,5.36-.76,8.26-.74-3.61-2.1-8.55-3.41-14-3.41-4.41,0-8.47,.86-11.78,2.29,0-.03,0-.05,0-.08,0-6.97-7.25-12.61-16.2-12.61-3.83,0-7.34,1.04-10.11,2.76-2.48-7.74-11.24-13.47-21.65-13.47-9.31,0-17.29,4.57-20.65,11.07,.07,.13,.13,.26,.2,.39-.12-.02-.24-.04-.36-.06-.99,2.03-1.54,4.24-1.54,6.56,0,1.49,.23,2.93,.66,4.31,.24-.79,.52-1.56,.89-2.31,.12,.02,.25,.04,.36,.06Z"/></g><path class="cls-2" d="M54.12,44.47c-7.28-.27-12.99-5.5-12.76-11.7,0-.03,0-.06,0-.09-.54,1.17-.88,2.43-.92,3.76-.23,6.19,5.49,11.43,12.76,11.7s13.29-4.49,13.58-10.64c-1.98,4.26-6.95,7.19-12.66,6.98Z"/><path class="cls-2" d="M129.32,53.32c-5.69,1.86-11.58-.56-13.16-5.41,0-.02-.01-.05-.02-.07-.09,1.05,.01,2.12,.35,3.16,1.58,4.84,7.47,7.26,13.16,5.41,5.66-1.85,8.98-7.23,7.46-12.06-.32,3.85-3.32,7.51-7.79,8.97Z"/><path class="cls-2" d="M110.62,53.43c-3.94,1.29-8.02-.39-9.11-3.74,0-.02,0-.03-.01-.05-.06,.73,0,1.47,.24,2.19,1.09,3.35,5.18,5.03,9.11,3.74s6.22-5.01,5.16-8.35c-.22,2.67-2.3,5.2-5.39,6.21Z"/></g></g></svg>