<?xml version="1.0" encoding="UTF-8"?><svg id="Layer_2" xmlns="http://www.w3.org/2000/svg" viewBox="0 0 275.04 92.64"><defs><style>.cls-1{fill:#fff;}.cls-2{fill:#d0e6f4;}.cls-3{fill:#e8f3fa;}.cls-4{fill:none;}</style></defs><g id="Layer_1-2"><g><path class="cls-3" d="M168.46,48c-.15,0-.3,0-.46,0,1.74-2.72,2.75-5.88,2.75-9.25,0-10.17-9.03-18.42-20.18-18.42-4.11,0-7.93,1.13-11.12,3.06,.08-.66,.12-1.32,.12-1.99,0-11.82-11.91-21.4-26.6-21.4s-26.6,9.58-26.6,21.4c0,1.25,.14,2.47,.39,3.65-2.43-2.03-5.56-3.25-8.98-3.25-7.75,0-14.04,6.29-14.04,14.04,0,.23,.02,.45,.03,.67-2.73-2.85-7.27-4.72-12.42-4.72-8.34,0-15.11,4.91-15.13,10.98C15.5,45.15,0,54.66,0,66.04c0,13.17,20.77,23.85,46.39,23.85,15.92,0,29.96-4.12,38.32-10.4,3.06,7.54,14.75,13.15,28.72,13.15,11.35,0,21.2-3.71,26.13-9.14,7.31,3.94,17.55,6.39,28.9,6.39,22.2,0,40.2-9.38,40.2-20.94s-18-20.94-40.2-20.94Z"/><g><path class="cls-2" d="M172.74,72.76c-11.35,0-21.59-2.45-28.9-6.39-4.93,5.43-14.78,9.14-26.13,9.14-13.97,0-25.66-5.61-28.72-13.15-8.36,6.28-22.4,10.4-38.32,10.4-21.78,0-40.04-7.71-45.04-18.12C2.05,58.03,0,61.91,0,66.04,0,79.21,20.77,89.89,46.39,89.89c15.92,0,29.96-4.12,38.32-10.4,3.06,7.54,14.75,13.15,28.72,13.15,11.35,0,21.2-3.71,26.13-9.14,7.31,3.94,17.55,6.39,28.9,6.39,22.2,0,40.2-9.38,40.2-20.94,0-2.12-.61-4.17-1.74-6.1-7.09,5.95-19.75,9.92-34.19,9.92Z"/><g><path class="cls-4" d="M272.33,27.74c.15,0,.3,0,.46,0,.75,0,1.5,.01,2.25,.03-.07-1.46-.32-2.88-.74-4.23-.47,1.49-1.13,2.9-1.97,4.21Z"/><path class="cls-1" d="M108.69,7.03c14.69,0,26.6,9.58,26.6,21.4,0,.67-.04,1.33-.12,1.99,3.19-1.93,7.3-3.93,11.42-4.07,15.71-.52,24.17,12.4,24.17,12.4,0-10.17-9.03-18.42-20.18-18.42-4.11,0-7.93,1.13-11.12,3.06,.08-.66,.12-1.32,.12-1.99,0-11.82-11.91-21.4-26.6-21.4-12.22,0-22.5,6.63-25.62,15.66,4.85-5.24,12.6-8.63,21.34-8.63Z"/></g></g><path class="cls-2" d="M49.15,52.28c-7.28-.27-12.99-5.5-12.76-11.7,0-.03,0-.06,0-.09-.54,1.17-.88,2.43-.92,3.76-.23,6.19,5.49,11.43,12.76,11.7,7.24,.26,13.29-4.49,13.58-10.64-1.98,4.26-6.95,7.19-12.66,6.98Z"/><path class="cls-2" d="M158.94,51.29c-5.51-.2-9.84-4.17-9.67-8.86,0-.02,0-.05,0-.07-.41,.88-.66,1.84-.7,2.85-.17,4.69,4.16,8.66,9.67,8.86s10.06-3.4,10.28-8.06c-1.5,3.23-5.26,5.44-9.59,5.28Z"/><path class="cls-2" d="M96.19,61.2c-9.4-.34-16.79-7.11-16.49-15.11,0-.04,0-.08,.01-.12-.7,1.51-1.13,3.14-1.2,4.86-.29,8,7.09,14.77,16.49,15.11,9.35,.34,17.17-5.81,17.54-13.75-2.56,5.51-8.98,9.28-16.36,9.01Z"/></g></g></svg>