<?xml version="1.0" encoding="UTF-8"?><svg id="Layer_2" xmlns="http://www.w3.org/2000/svg" viewBox="0 0 200.79 93.45"><defs><style>.cls-1{fill:#fff;}.cls-2{fill:#d0e6f4;}.cls-3{fill:#e8f3fa;}</style></defs><g id="Layer_1-2"><g><path class="cls-3" d="M200.79,60.99c0-11.23-17.04-20.33-38.06-20.33-5.26,0-10.26,.57-14.82,1.6l-2.16-.96c.59-1.74,.93-3.6,.93-5.54,0-9.46-7.67-17.12-17.12-17.12-1.71,0-3.35,.26-4.91,.72,0-.14,.02-.28,.02-.42,0-10.47-13-18.96-29.04-18.96s-29.04,8.49-29.04,18.96c0,.2,.01,.4,.02,.6-1.27-.38-2.64-.6-4.07-.6-6.46,0-11.69,4.24-11.69,9.48,0,.58,.07,1.14,.2,1.69-3.23-.5-6.61-.77-10.09-.77C18.33,29.35,0,40.64,0,54.57s18.33,25.22,40.93,25.22c2.08,0,4.12-.1,6.12-.28,3.29,7.93,18.85,13.94,37.56,13.94,15.21,0,28.35-3.97,34.5-9.72,4.66,4,12.73,6.65,21.91,6.65,10.95,0,20.32-3.77,24.21-9.11,19.85-.69,35.56-9.5,35.56-20.28Z"/><path class="cls-1" d="M92.17,7.95c16.04,0,29.04,8.49,29.04,18.96,0,.14-.01,.28-.02,.42,1.56-.46,3.2-.72,4.91-.72,9.46,0,19.55,5.25,19.55,14.71,.59-1.74,.93-3.6,.93-5.54,0-9.46-7.67-17.12-17.12-17.12-1.71,0-3.35,.26-4.91,.72,0-.14,.02-.28,.02-.42,0-10.47-13-18.96-29.04-18.96s-28.25,7.98-29.01,18c4.88-5.98,14.53-10.05,25.64-10.05Z"/><path class="cls-2" d="M61.48,59.37c-1.94,4.77-8.17,6.75-13.91,4.41-.03-.01-.06-.03-.08-.04,.96,.77,2.07,1.44,3.3,1.94,5.74,2.34,11.97,.36,13.91-4.41,1.93-4.75-1.11-10.48-6.79-12.84,3.52,2.83,5.1,7.18,3.58,10.93Z"/><path class="cls-2" d="M133.9,64.99c-8.1,3.09-16.8,0-19.43-6.9-.01-.03-.02-.07-.03-.11-.05,1.53,.17,3.07,.73,4.55,2.63,6.9,11.33,9.99,19.43,6.9,8.06-3.07,12.49-11.1,9.94-17.98-.2,5.59-4.28,11.11-10.64,13.53Z"/><path class="cls-2" d="M153.55,73.57c-9.18,0-17.25-2.65-21.91-6.65-6.15,5.75-19.28,9.72-34.5,9.72-18.71,0-34.27-6.01-37.56-13.94-2,.18-4.04,.28-6.12,.28-22.6,0-40.93-11.29-40.93-25.22,0-.46,.02-.92,.06-1.38C4.84,40.97,0,47.42,0,54.57,0,68.5,18.32,79.8,40.93,79.8c2.08,0,4.12-.1,6.12-.28,3.29,7.93,18.85,13.94,37.56,13.94,15.21,0,28.35-3.97,34.5-9.72,4.66,4,12.73,6.65,21.91,6.65,10.95,0,20.32-3.77,24.21-9.11,19.85-.69,35.56-9.5,35.56-20.28,0-.56-.05-1.12-.14-1.67-6.16,2.95-14.11,4.84-22.89,5.14-3.89,5.34-13.26,9.11-24.21,9.11Z"/></g></g></svg>